<?xml version="1.0" encoding="UTF-8"?>
<svg width="400px" height="48px" viewBox="0 0 400 48" version="1.1" xmlns="http://www.w3.org/2000/svg" xmlns:xlink="http://www.w3.org/1999/xlink">
    <!-- Generator: Sketch 52.5 (67469) - http://www.bohemiancoding.com/sketch -->
    <title>Logo/Black</title>
    <desc>Created with Sketch.</desc>
    <g id="Logo/Black" stroke="none" stroke-width="1" fill="none" fill-rule="evenodd">
        <g id="HERCO-main-logotype-red" transform="translate(1.000000, 0.000000)" fill="#000000">
            <path d="M386.14981,5.34121334 C393.583835,9.48635605 397.483883,14.723053 397.955549,21.1618414 C398.427216,27.6006297 395.139631,33.3761952 388.360306,38.3710922 C381.580981,43.3659892 373.126185,46.2537719 363.059275,46.8755433 C352.992365,47.4973147 344.241898,45.7908977 336.793792,41.7217492 C329.345687,37.6526008 325.459719,32.2915496 325.037331,25.8320355 C324.614943,19.3725214 327.775812,13.6729502 334.576256,8.62278465 C341.3767,3.57261911 349.831497,0.809190634 359.898406,0.139059229 C369.965316,-0.531072177 378.715784,1.22370491 386.14981,5.34121334 Z M352.14759,19.76631 C350.169407,24.4986812 349.451347,28.8510811 350.035651,32.961681 C350.619954,37.0722808 352.232067,39.5870007 355.040946,40.6647378 C357.849825,41.7424749 360.848779,40.9548978 364.249001,38.4125436 C367.833978,35.5111615 370.599759,31.7550158 372.281409,27.5039097 C374.259592,22.7715385 374.977652,18.4260472 374.393349,14.3776245 C373.809045,10.3292017 372.182852,7.70394468 369.388053,6.67456758 C366.593253,5.64519047 363.566141,6.33604759 360.179998,8.92676178 C356.793856,11.517476 354.139852,15.0822987 352.14759,19.76631 Z" id="_Trazado_compuesto_" fill-rule="nonzero"></path>
            <g id="_Grupo_2" transform="translate(247.000000, 0.000000)">
                <path d="M38.5514019,0.125217391 C27.5817757,0.820869565 18.3434579,3.65217391 10.9485981,8.68869565 C3.55373832,13.7252174 0.035046729,19.533913 0.504672897,26.0173913 C0.974299065,32.5008696 5.22897196,37.8434783 13.3598131,42.0173913 C21.4906542,46.1913043 31.0023364,47.8608696 42.0560748,47.186087 C52.8691589,46.5646377 61.9485981,43.7982609 69.2943925,38.8869565 C69.7149533,38.6295652 69.7149533,38.1913043 69.2943925,37.6417391 L64.6261682,31.1582609 C64.364486,30.7408696 63.9976636,30.7408696 63.5257009,31.1582609 C63.1134732,31.5656132 62.6756823,31.9466646 62.2149533,32.2991304 C58.3317757,35.1513043 53.5023364,36.813913 47.7827103,37.1686957 C42.0630841,37.5234783 37.0233645,36.5426087 32.7757009,34.2121739 C28.5280374,31.8817391 26.3200935,28.7652174 26.0607477,25.0295652 C25.8014019,21.293913 27.6378505,17.9756522 31.521028,15.0678261 C35.4042056,12.16 40.2336449,10.5043478 45.953271,10.1356522 C51.6728972,9.76695652 56.7126168,10.7547826 60.911215,13.1478261 C62.7681869,14.1532629 64.4088572,15.5097906 65.7406542,17.1408696 C66.1051402,17.6069565 66.5257009,17.6069565 67.0023364,17.1895652 L74.1939252,11.1304348 C74.3764287,10.9925298 74.4793969,10.7747265 74.4696152,10.5472822 C74.4598334,10.3198379 74.3385397,10.1115346 74.1448598,9.98956522 C72.0698929,8.1303749 69.7379192,6.57494858 67.2196262,5.37043478 C59.1308411,1.2173913 49.5771028,-0.500869565 38.5514019,0.125217391 Z" id="_Trazado_"></path>
            </g>
            <g id="_Grupo_3" transform="translate(156.000000, 1.000000)" fill-rule="nonzero">
                <path d="M86.2001613,8.47382353 C85.1477419,5.70911765 83.6766935,3.75078431 81.7870161,2.59882353 C79.5278226,1.21647059 76.0057258,0.5875 71.3329839,0.691176471 L29.2362097,0.691176471 C28.9991468,0.688102196 28.7710783,0.780469026 28.6047581,0.946911765 L28.4995161,1.20264706 C21.7374227,14.4502969 13.9031392,27.1398577 5.07266129,39.1482353 C3.49637097,41.2632353 1.92008065,43.3367647 0.343790323,45.3688235 C-0.182419355,45.9839706 0.0841935484,46.3502941 0.975241935,46.3986765 L26.9770161,46.3986765 C27.4952863,46.4158655 27.9809311,46.1500761 28.2399194,45.7075 C29.4466935,43.4888235 30.6043548,41.3254412 31.811129,39.2104412 C34.6175806,34.0542647 36.5891129,30.7020588 37.6415323,29.2091176 C38.0313509,28.7234044 38.6431648,28.4636142 39.2692742,28.5179412 L46.0468548,28.5179412 C50.6143548,28.6216176 52.5578226,30.6329412 51.8772581,34.4966176 C51.3019355,37.5377941 49.5689516,41.1457353 46.6221774,45.3204412 C46.0959677,46.0116176 46.3625806,46.4539706 47.4079839,46.4539706 L76.5108871,46.4539706 C77.082921,46.5360695 77.6263901,46.1821205 77.7737903,45.6314706 C79.7172581,37.2820588 78.9805645,31.4554412 75.5707258,28.2069118 C74.8878226,27.4834804 74.8878226,26.967402 75.5707258,26.6586765 C80.2434677,24.3363235 83.4007258,21.4541176 85.0775806,17.9429412 C86.7544355,14.4317647 87.1964516,11.1555882 86.2001613,8.47382353 Z M61.3981452,17.5973529 C59.3985484,19.6708824 56.3535484,20.6938235 52.361371,20.7422059 L44.3208871,20.6938235 C43.7455645,20.6938235 43.6192742,20.3344118 44.0612903,19.6639706 C45.8995161,16.7264706 48.1095968,13.4433824 50.733629,9.9875 C50.9932258,9.57279412 51.5755645,9.36544118 52.4666129,9.29632353 L56.2483065,9.29632353 C60.4579839,9.44838235 62.7592742,10.5819118 63.0258871,12.7522059 C63.3550958,14.5335396 62.7448727,16.3577966 61.4051613,17.5973529 L61.3981452,17.5973529 Z" id="_Trazado_compuesto_2"></path>
            </g>
            <g id="_Grupo_4" transform="translate(86.000000, 1.000000)">
                <path d="M84.3032787,0.686567164 C84.3586516,0.630044846 84.395124,0.558163098 84.4077869,0.480597015 C84.6655738,0.171641791 84.5122951,-0.0343283582 84.0942623,0.0205970149 L29.5131148,0.0205970149 C29.2777047,0.0175432423 29.0512262,0.109294098 28.8860656,0.274626866 L28.7815574,0.528656716 C20.2769126,17.0062687 10.9571038,31.6187065 0.822131148,44.3659701 C0.717622951,44.4689552 0.668852459,44.5170149 0.668852459,44.62 C0.51557377,44.8259701 0.51557377,45.0319403 0.668852459,45.1349254 C0.822131148,45.2379104 1.08688525,45.3408955 1.44918033,45.3889552 L54.922541,45.3889552 C55.3998305,45.3694088 55.8336924,45.1102945 56.0721311,44.7023881 C56.4344262,44.0844776 56.7688525,43.4253731 57.1172131,42.8074627 C57.9532787,41.1665672 59.3118852,38.8116418 61.0327869,35.7426866 C61.2905738,35.2277612 61.1372951,34.9737313 60.5659836,34.9256716 L34.5852459,35.7976119 C33.9581967,35.6946269 33.7491803,35.3376119 34.0627049,34.7746269 C34.6340164,33.7516418 36.4106557,30.778806 39.329918,25.8492537 C39.6878017,25.2895593 40.3333199,24.9741546 41.0020492,25.0322388 L65.6241803,26.2131343 C66.1914153,26.3109295 66.7641113,26.0717528 67.0872951,25.6020896 C67.4495902,24.9155224 68.3901639,23.4531343 69.9577869,21.0432836 C71.3512295,18.8943284 72.0967213,17.7134328 72.1454918,17.6104478 C72.4590164,17.0955224 72.3545082,16.9238806 71.727459,16.9238806 L45.802459,17.3358209 C45.2311475,17.3358209 45.0221311,17.081791 45.279918,16.6492537 C46.9520492,14.1913433 48.1504098,12.5298507 49.822541,10.2435821 C50.0803279,9.83164179 50.6028689,9.68059701 51.3901639,9.72865672 L76.1655738,10.0376119 C76.7947936,10.1550242 77.4383066,9.919866 77.8377049,9.42656716 C79.7188525,6.86567164 81.2795082,4.71671642 82.582377,2.92477612 L84.3032787,0.686567164 Z" id="_Trazado_2"></path>
            </g>
            <g id="_Grupo_5" transform="translate(0.000000, 1.000000)">
                <path d="M99.9388966,0.691176471 L74.1856552,0.691176471 C73.9479722,0.688102196 73.719307,0.780469026 73.5525517,0.946911765 L73.4470345,1.20264706 C70.4995862,6.91176471 67.6506207,12.0817647 64.9142069,16.5882353 C64.661965,17.0717478 64.1516493,17.3720594 63.5987586,17.3623529 L46.7933793,17.3623529 C46.1086897,17.4130392 46.0031724,17.1043137 46.4768276,16.4361765 C50.1136552,11.0726471 53.7997241,5.97176471 57.5913103,1.12661765 C57.8023448,0.815588235 57.6475862,0.608235294 57.2255172,0.663529412 L29.9387586,0.663529412 C29.7010757,0.660455137 29.4724105,0.752821967 29.3056552,0.919264706 L29.2001379,1.175 C23.1898183,12.9062205 16.3618389,24.2154482 8.76496552,35.0219118 C6.19034483,38.5814706 3.60868966,42.0373529 0.970758621,45.3342647 C0.443172414,45.9494118 0.710482759,46.3157353 1.60386207,46.3641176 L27.6736552,46.3641176 C28.1932811,46.3813067 28.6801963,46.1155173 28.9398621,45.6729412 C33.1605517,37.835 37.0013793,31.1582353 40.4764138,25.6702941 C40.8263619,25.2302491 41.3928199,25.0129194 41.9536552,25.1035294 L58.9630345,25.1035294 C59.4906207,25.0551471 59.5961379,25.2555882 59.3851034,25.6219118 C54.8548966,32.6120098 50.1324138,39.1827941 45.2176552,45.3342647 C44.690069,45.9494118 44.9573793,46.3157353 45.8507586,46.3641176 L71.9205517,46.3641176 C72.4401776,46.3813067 72.9270929,46.1155173 73.1867586,45.6729412 C73.5525517,45.0508824 73.8902069,44.3873529 74.241931,43.7652941 C78.4016552,36.014902 82.7302069,28.7022549 87.2275862,21.8273529 C91.3873103,15.3302941 95.6525517,9.2295098 100.02331,3.525 C100.600138,2.75088235 101.233241,1.97676471 101.866345,1.15426471 C102.077379,0.843235294 101.915586,0.635882353 101.500552,0.691176471 L99.9388966,0.691176471 Z" id="_Trazado_3"></path>
            </g>
        </g>
    </g>
</svg>