<?xml version="1.0" encoding="UTF-8"?>
<svg width="400px" height="80px" viewBox="0 0 400 80" version="1.1" xmlns="http://www.w3.org/2000/svg" xmlns:xlink="http://www.w3.org/1999/xlink">
    <!-- Generator: Sketch 52.5 (67469) - http://www.bohemiancoding.com/sketch -->
    <title>SH-Logo-Claim</title>
    <desc>Created with Sketch.</desc>
    <g id="Page-1" stroke="none" stroke-width="1" fill="none" fill-rule="evenodd">
        <g id="SH-Logo-Claim">
            <g id="_Grupo_" fill="#E20029">
                <path d="M387.676056,6.13380282 C395.112676,10.3591549 399.014085,15.6971831 399.485915,22.2605634 C399.957746,28.8239437 396.669014,34.7112676 389.887324,39.8028169 C383.105634,44.8943662 374.647887,47.8450704 364.577465,48.471831 C354.507042,49.0985915 345.774648,47.3661972 338.316901,43.2183099 C330.859155,39.0704225 326.978873,33.6056338 326.556338,27.0211268 C326.133803,20.4366197 329.295775,14.6267606 336.098592,9.47887324 C342.901408,4.33098592 351.34507,1.51408451 361.415493,0.830985915 C371.485915,0.147887324 380.239437,1.93661972 387.676056,6.13380282 Z M353.661972,20.8380282 C351.683099,25.6619718 350.964789,30.0985915 351.549296,34.2887324 C352.133803,38.4788732 353.746479,41.0422535 356.556338,42.1408451 C359.366197,43.2394366 362.366197,42.4366197 365.767606,39.8450704 C369.353833,36.8875459 372.12058,33.058718 373.802817,28.7253521 C375.78169,23.9014085 376.5,19.471831 375.915493,15.3450704 C375.330986,11.2183099 373.704225,8.54225352 370.908451,7.49295775 C368.112676,6.44366197 365.084507,7.14788732 361.697183,9.78873239 C358.309859,12.4295775 355.633803,16.0633803 353.661972,20.8380282 Z" id="_Trazado_compuesto_" fill-rule="nonzero"></path>
                <g id="_Grupo_2" transform="translate(247.887324, 0.704225)">
                    <path d="M38.3098592,0.126760563 C27.2887324,0.830985915 18.0070423,3.6971831 10.5774648,8.79577465 C3.14788732,13.8943662 -0.387323944,19.7746479 0.0845070423,26.3380282 C0.556338028,32.9014085 4.83098592,38.3098592 13,42.5352113 C21.1690141,46.7605634 30.7183099,48.471831 41.7887324,47.7887324 C52.6525822,47.1596244 61.7746479,44.3591549 69.1549296,39.3873239 C69.5774648,39.1267606 69.5774648,38.6830986 69.1549296,38.1267606 L64.4647887,31.5633803 C64.2018779,31.1408451 63.8333333,31.1408451 63.3591549,31.5633803 C62.9449918,31.9757528 62.5051456,32.3615003 62.0422535,32.7183099 C58.1408451,35.6056338 53.2887324,37.2887324 47.5422535,37.6478873 C41.7957746,38.0070423 36.7323944,37.0140845 32.4647887,34.6549296 C28.1971831,32.2957746 25.9788732,29.1408451 25.7183099,25.3591549 C25.4577465,21.5774648 27.3028169,18.2183099 31.2042254,15.2746479 C35.1056338,12.3309859 39.9577465,10.6549296 45.7042254,10.2816901 C51.4507042,9.9084507 56.5140845,10.9084507 60.7323944,13.3309859 C62.5980845,14.3488137 64.2464575,15.7220591 65.584507,17.3732394 C65.9507042,17.8450704 66.3732394,17.8450704 66.8521127,17.4225352 L74.1126761,11.2676056 C74.2960363,11.1280011 74.3994879,10.9075136 74.3896603,10.6772663 C74.3798327,10.447019 74.2579694,10.2361486 74.0633803,10.1126761 C71.9786717,8.23057318 69.6357498,6.65597788 67.1056338,5.43661972 C58.9788732,1.23239437 49.3802817,-0.507042254 38.3098592,0.126760563 Z" id="_Trazado_"></path>
                </g>
                <g id="_Grupo_3" transform="translate(156.338028, 0.704225)" fill-rule="nonzero">
                    <path d="M86.7957746,8.63380282 C85.7394366,5.81690141 84.2629108,3.82159624 82.3661972,2.64788732 C80.0985915,1.23943662 76.5633803,0.598591549 71.8732394,0.704225352 L29.6197183,0.704225352 C29.3817728,0.701093038 29.152855,0.795203683 28.9859155,0.964788732 L28.8802817,1.22535211 C22.0930097,14.7231075 14.2295553,27.6522373 5.36619718,39.8873239 C3.78403756,42.0422535 2.20187793,44.1549296 0.61971831,46.2253521 C0.0915492958,46.8521127 0.35915493,47.2253521 1.25352113,47.2746479 L27.3521127,47.2746479 C27.8723126,47.2921614 28.3597657,47.0213541 28.6197183,46.5704225 C29.8309859,44.3098592 30.9929577,42.1056338 32.2042254,39.9507042 C35.0211268,34.6971831 37,31.2816901 38.056338,29.7605634 C38.4476081,29.2656803 39.0617002,29.0009854 39.6901408,29.056338 L46.4788732,29.056338 C51.0633803,29.1619718 53.0140845,31.2112676 52.3309859,35.1478873 C51.7535211,38.2464789 50.0140845,41.9225352 47.056338,46.1760563 C46.528169,46.8802817 46.7957746,47.3309859 47.8450704,47.3309859 L77.056338,47.3309859 C77.6305019,47.4146348 78.1759946,47.0540035 78.3239437,46.4929577 C80.2816901,37.8943662 79.5774648,31.9577465 76.1478873,28.6478873 C75.4624413,27.9107981 75.4624413,27.3849765 76.1478873,27.0704225 C80.8380282,24.7042254 84.0070423,21.7676056 85.6901408,18.1901408 C87.3732394,14.6126761 87.7957746,11.3661972 86.7957746,8.63380282 Z M61.9014085,17.9295775 C59.8943662,20.0422535 56.8380282,21.084507 52.8309859,21.1338028 L44.7605634,21.084507 C44.1830986,21.084507 44.056338,20.7183099 44.5,20.0352113 C46.3450704,17.0422535 48.5633803,13.6971831 51.1971831,10.1760563 C51.4577465,9.75352113 52.0422535,9.54225352 52.9366197,9.47183099 L56.7323944,9.47183099 C60.9577465,9.62676056 63.2676056,10.7816901 63.5352113,12.9929577 C63.8656457,14.8079217 63.2531505,16.6666192 61.9084507,17.9295775 L61.9014085,17.9295775 Z" id="_Trazado_compuesto_2"></path>
                </g>
                <g id="_Grupo_4" transform="translate(86.619718, 1.408451)">
                    <path d="M84.7676056,0.704225352 C84.8235749,0.646249306 84.8604402,0.572518794 84.8732394,0.492957746 C85.1338028,0.176056338 84.9788732,-0.0352112676 84.556338,0.0211267606 L29.4014085,0.0211267606 C29.1634629,0.0179944464 28.9345451,0.112105091 28.7676056,0.281690141 L28.6619718,0.542253521 C20.0657277,17.443662 10.6455399,32.4319249 0.401408451,45.5070423 C0.295774648,45.6126761 0.246478873,45.6619718 0.246478873,45.7676056 C0.0915492958,45.9788732 0.0915492958,46.1901408 0.246478873,46.2957746 C0.401408451,46.4014085 0.669014085,46.5070423 1.03521127,46.556338 L55.084507,46.556338 C55.5669372,46.5362889 56.005472,46.2705102 56.2464789,45.8521127 C56.6126761,45.2183099 56.9507042,44.5422535 57.3028169,43.9084507 C58.1478873,42.2253521 59.5211268,39.8098592 61.2605634,36.6619718 C61.5211268,36.1338028 61.3661972,35.8732394 60.7887324,35.8239437 L34.5070423,36.6619718 C33.8732394,36.556338 33.6619718,36.1901408 33.9788732,35.6126761 C34.556338,34.5633803 36.3521127,31.5140845 39.3028169,26.4577465 C39.6645552,25.883657 40.317026,25.5601402 40.9929577,25.6197183 L65.8802817,26.8309859 C66.4536261,26.9312963 67.0324903,26.6859682 67.3591549,26.2042254 C67.7253521,25.5 68.6760563,24 70.2605634,21.528169 C71.6690141,19.3239437 72.4225352,18.1126761 72.471831,18.0070423 C72.7887324,17.4788732 72.6830986,17.3028169 72.0492958,17.3028169 L45.8450704,17.7253521 C45.2676056,17.7253521 45.056338,17.4647887 45.3169014,17.0211268 C47.0070423,14.5 48.2183099,12.7957746 49.9084507,10.4507042 C50.1690141,10.028169 50.6971831,9.87323944 51.4929577,9.92253521 L76.5352113,10.2394366 C77.1712081,10.3598686 77.8216521,10.1186623 78.2253521,9.61267606 C80.1267606,6.98591549 81.7042254,4.78169014 83.0211268,2.94366197 L84.7676056,0.704225352 Z" id="_Trazado_2"></path>
                </g>
                <g id="_Grupo_5" transform="translate(0.000000, 0.704225)">
                    <path d="M99.6197183,0.704225352 L73.8380282,0.704225352 C73.6000826,0.701093038 73.3711649,0.795203683 73.2042254,0.964788732 L73.0985915,1.22535211 C70.1478873,7.04225352 67.2957746,12.3098592 64.556338,16.9014085 C64.3038174,17.3940493 63.7929381,17.7000305 63.2394366,17.6901408 L46.415493,17.6901408 C45.7300469,17.741784 45.6244131,17.42723 46.0985915,16.7464789 C49.7394366,11.2816901 53.4295775,6.08450704 57.2253521,1.14788732 C57.4366197,0.830985915 57.2816901,0.61971831 56.8591549,0.676056338 L29.5774648,0.676056338 C29.3395193,0.672924024 29.1106015,0.767034668 28.943662,0.936619718 L28.8380282,1.1971831 C22.8097103,13.1508907 15.9624084,24.6736525 8.34507042,35.6830986 C5.76760563,39.3098592 3.18309859,42.8309859 0.542253521,46.1901408 C-5.55111512e-17,46.8239437 0.281690141,47.1830986 1.17605634,47.2394366 L27.2746479,47.2394366 C27.7948478,47.2569502 28.2823009,46.9861429 28.5422535,46.5352113 C32.7605634,38.5211268 36.6197183,31.6901408 40.0915493,26.1267606 C40.441884,25.6784078 41.0089677,25.4569751 41.5704225,25.5492958 L58.5985915,25.5492958 C59.1267606,25.5 59.2323944,25.7042254 59.0211268,26.0774648 C54.4859155,33.2183099 49.758216,39.9225352 44.8380282,46.1901408 C44.3098592,46.8169014 44.5774648,47.1901408 45.471831,47.2394366 L71.5704225,47.2394366 C72.0906224,47.2569502 72.5780756,46.9861429 72.8380282,46.5352113 C73.2042254,45.9014085 73.5422535,45.2253521 73.8943662,44.5915493 C78.0586854,36.713615 82.3826291,29.2723005 86.8661972,22.2676056 C91.0305164,15.6478873 95.3004695,9.43192488 99.6760563,3.61971831 C100.253521,2.83098592 100.887324,2.04225352 101.521127,1.20422535 C101.732394,0.887323944 101.570423,0.676056338 101.15493,0.732394366 L99.6197183,0.704225352 Z" id="_Trazado_3"></path>
                </g>
            </g>
            <g id="Group" transform="translate(0.000000, 57.000000)" fill="#003E90">
                <path d="M11.515146,17.1622441 C11.5255174,16.6950773 11.420275,16.2328057 11.2091923,15.8183584 C10.9919474,15.4170295 10.6932078,15.0679037 10.333052,14.7944455 C9.91760526,14.4801372 9.46419418,14.2220232 8.984074,14.0265108 C8.42922306,13.7928691 7.86291408,13.5887614 7.28742131,13.4150073 C6.46178953,13.1673959 5.65336291,12.8633293 4.86760519,12.5048624 C4.09881621,12.1644697 3.37843164,11.719609 2.72592885,11.1823082 C2.11299976,10.6730158 1.59883776,10.050772 1.21006703,9.34779758 C0.813257872,8.60266942 0.614272124,7.76423828 0.632926979,6.91600439 C0.617747989,6.05456796 0.816309032,5.20324841 1.21006703,4.44154815 C1.59810293,3.71514681 2.13398465,3.08230025 2.78155681,2.58570597 C3.46330817,2.06051498 4.23083245,1.66327232 5.04839605,1.41247241 C5.91971715,1.13608471 6.82712363,0.997020205 7.73939846,1.00006304 C8.68624889,0.99634119 9.62681208,1.15744292 10.5207963,1.47646697 C11.3631243,1.76547168 12.1458385,2.21147103 12.8293565,2.79191066 C13.481454,3.35984197 14.0117378,4.0594513 14.3869393,4.84684702 C14.7744688,5.6746611 14.9741352,6.58129473 14.9710329,7.49906591 L11.529053,7.49906591 C11.4893963,6.99429299 11.3769225,6.49829757 11.1952853,6.02719108 C11.0192972,5.59835029 10.7589428,5.21110185 10.4304009,4.88951006 C10.0971719,4.5587661 9.69896859,4.30426935 9.26221378,4.14290688 C8.75122605,3.95798403 8.21180127,3.86886005 7.66986352,3.87981814 C7.19234038,3.87501579 6.7167254,3.94209917 6.25830411,4.07891232 C5.84356435,4.20314587 5.45630017,4.40839428 5.117931,4.68330537 C4.8029617,4.94142451 4.54670515,5.26655181 4.36695358,5.63611323 C4.18058868,6.03036314 4.08768331,6.46396749 4.09576729,6.90178337 C4.08544688,7.36491473 4.21671038,7.81979669 4.471256,8.20300605 C4.73056927,8.5934173 5.06110589,8.92900323 5.44474524,9.19136644 C5.880111,9.48213641 6.34674529,9.72072192 6.83544416,9.90241708 C7.35463843,10.1015113 7.89701101,10.2840143 8.4625619,10.4499261 C9.31576068,10.7082359 10.1480479,11.0339288 10.951913,11.4240655 C11.7087548,11.7962288 12.4109188,12.2749082 13.0379614,12.8461667 C13.6287322,13.3749532 14.1149687,14.0145755 14.4703812,14.7304509 C14.8340247,15.4938271 15.015151,16.334611 14.9988468,17.1835757 C15.017205,18.0575499 14.8161031,18.9217393 14.4147533,19.6935844 C14.0272151,20.4126027 13.4880302,21.0344005 12.83631,21.5138741 C12.1421058,22.0203685 11.3650216,22.3960123 10.5416568,22.6231131 C9.65653452,22.8754411 8.74171203,23.0022452 7.8228404,22.9999699 C7.18315059,22.9996863 6.54502331,22.9353853 5.91758288,22.8079862 C5.29424997,22.6828319 4.68582381,22.4897463 4.10272079,22.2320352 C3.53073565,21.98226 2.98931349,21.6648671 2.48951004,21.2863379 C1.99995181,20.9150911 1.56448019,20.4745747 1.19616004,19.9780047 C0.823304715,19.4757539 0.52999417,18.9166777 0.326973217,18.3212567 C0.105683699,17.6550697 -0.00478638462,16.955651 0.000158970246,16.2520993 L3.47690627,16.2520993 C3.51032113,16.8357841 3.65190255,17.4076586 3.89411595,17.9372893 C4.10101219,18.4017885 4.40479948,18.8143664 4.78416326,19.1460754 C5.18218516,19.4698343 5.63799038,19.7113356 6.12618772,19.8571261 C6.67665112,20.0244092 7.24862426,20.10591 7.8228404,20.0988833 C8.31122951,20.1022044 8.79779338,20.0376185 9.26916728,19.9068996 C9.69143457,19.7918972 10.0896594,19.5991318 10.4443079,19.3380591 C10.7717935,19.0953125 11.0405766,18.7791108 11.2300528,18.4136933 C11.4247754,18.0270515 11.522728,17.5970778 11.515146,17.1622441 Z" id="Path"></path>
                <path d="M28.7401723,20.5483917 C28.2529621,21.2905367 27.6044166,21.9082158 26.8449237,22.3534392 C26.0857158,22.7878439 25.2275958,23.0107134 24.3569791,22.9996041 C23.6145354,23.0080964 22.876711,22.8796028 22.179166,22.6203334 C21.5267074,22.3734845 20.9459393,21.9628007 20.4906718,21.4263331 C19.9844789,20.8100501 19.611132,20.0921589 19.3948735,19.3192737 C19.1140897,18.3267514 18.9816586,17.2967772 19.0020401,16.2640377 L19.0020401,7 L22.3928123,7 L22.3928123,16.3132024 C22.3820531,16.9401982 22.4375066,17.5665544 22.5582158,18.1814617 C22.6374415,18.6059541 22.8093903,19.0068344 23.0613182,19.3543914 C23.2813789,19.6404702 23.5782819,19.8552026 23.915903,19.9724621 C24.309729,20.1020292 24.7220024,20.1637466 25.135754,20.155074 C25.9040945,20.1910831 26.6666242,20.0035064 27.3342424,19.6142621 C27.8860605,19.2576162 28.3242411,18.7451758 28.5954442,18.1393205 L28.5954442,7 L32,7 L32,22.7256864 L28.9538185,22.7256864 L28.7401723,20.5483917 Z" id="Path"></path>
                <path d="M38.9721397,7.28913098 L39.0548907,8.96617328 C39.3339337,8.39767462 39.7548371,7.91373259 40.2754678,7.56279061 C40.8277548,7.20888167 41.4711905,7.03054223 42.1235732,7.05055593 C42.6918546,7.02927637 43.2549194,7.16765703 43.7510094,7.45051999 C44.1929939,7.72797079 44.5342762,8.14420276 44.7233335,8.63637835 C45.0129368,8.15001734 45.4124858,7.74105207 45.8887433,7.44350308 C46.4095273,7.13643603 47.0041902,6.98333921 47.6058263,7.00143754 C48.0770663,6.99674387 48.544956,7.08244177 48.9850095,7.25404642 C49.4058068,7.42445646 49.7763188,7.70238285 50.0607723,8.06099145 C50.381177,8.47675319 50.6157327,8.95409583 50.7503639,9.46437413 C50.928398,10.1342686 51.0119844,10.8265057 50.9986169,11.5203297 L50.9986169,23 L47.8609752,23 L47.8609752,11.4922621 C47.9177823,11.0246844 47.7803176,10.5541899 47.4816998,10.1941331 C47.2048184,9.95055286 46.8475626,9.82269258 46.481792,9.83627053 C46.1510339,9.81732983 45.824171,9.91661286 45.5577393,10.1169471 C45.3260498,10.3117492 45.1538035,10.5697835 45.0612334,10.8607399 L45.0612334,23 L41.9649672,23 L41.9649672,11.4922621 C42.0114905,11.0321903 41.8804335,10.5717326 41.5994836,10.2081669 C41.3270559,9.94688104 40.9590783,9.81442812 40.585784,9.84328745 C40.2537534,9.82387363 39.9245404,9.91501047 39.6479395,10.1029132 C39.4148865,10.2850819 39.2339412,10.5273453 39.1238499,10.8046046 L39.1238499,23 L36,23 L36,7.28913098 L38.9721397,7.28913098 Z" id="Path"></path>
                <path d="M55,7.02556579 L63.3551351,7.02556579 L63.3551351,20.0462636 L68,20.0462636 L68,23 L55,23 L55,20.0819368 L59.8627027,20.0819368 L59.8627027,9.95789828 L55,9.95789828 L55,7.02556579 Z M59.5745946,2.90175025 C59.5577959,2.39454658 59.7456125,1.90235364 60.0945946,1.53903613 C60.4884273,1.1639043 61.0172184,0.970314794 61.5562162,1.00393895 C62.1016567,0.969435787 62.6372937,1.16274349 63.0389189,1.53903613 C63.7440455,2.3064664 63.7440455,3.49703411 63.0389189,4.26446438 C62.6372937,4.64075702 62.1016567,4.83406472 61.5562162,4.79956155 C61.0170972,4.83404662 60.4879795,4.64033753 60.0945946,4.26446438 C59.7456125,3.90114687 59.5577959,3.40895393 59.5745946,2.90175025 Z" id="Shape" fill-rule="nonzero"></path>
                <path d="M74.2393318,7.28810172 L74.4649931,9.46348737 C75.0247769,8.707827 75.7569387,8.08604433 76.6051359,7.64598774 C77.4619592,7.21128869 78.4176951,6.98939678 79.3858657,7.00038942 C80.158058,6.99269591 80.9260092,7.1113351 81.6570377,7.35125807 C82.327117,7.57483318 82.9331219,7.94746571 83.4259312,8.4389509 C83.9571631,8.99026623 84.3527604,9.64984718 84.5833554,10.3687285 C84.8772699,11.2767971 85.0173765,12.2246107 84.998281,13.1756777 L84.998281,23 L81.4095382,23 L81.4095382,13.2318167 C81.4239149,12.6828593 81.3452333,12.1353211 81.1765974,11.6108035 C81.0473173,11.2155126 80.8199324,10.8566025 80.5141723,10.5652149 C80.2197839,10.3006805 79.8622307,10.1102612 79.4732185,10.0108425 C79.01751,9.89339543 78.5472504,9.83672886 78.0755742,9.84242551 C77.3537817,9.82526258 76.641029,10.0000717 76.0155047,10.3476764 C75.4267649,10.6921642 74.9383561,11.1750651 74.5960223,11.751151 L74.5960223,22.9789479 L71,22.9789479 L71,7.28810172 L74.2393318,7.28810172 Z" id="Path"></path>
                <path d="M88,7.02556579 L96.3551351,7.02556579 L96.3551351,20.0462636 L101,20.0462636 L101,23 L88,23 L88,20.0819368 L92.8627027,20.0819368 L92.8627027,9.95789828 L88,9.95789828 L88,7.02556579 Z M92.5745946,2.90175025 C92.5577959,2.39454658 92.7456125,1.90235364 93.0945946,1.53903613 C93.4884273,1.1639043 94.0172184,0.970314794 94.5562162,1.00393895 C95.1016567,0.969435787 95.6372937,1.16274349 96.0389189,1.53903613 C96.7440455,2.3064664 96.7440455,3.49703411 96.0389189,4.26446438 C95.6372937,4.64075702 95.1016567,4.83406472 94.5562162,4.79956155 C94.0170972,4.83404662 93.4879795,4.64033753 93.0945946,4.26446438 C92.7456125,3.90114687 92.5577959,3.40895393 92.5745946,2.90175025 Z" id="Shape" fill-rule="nonzero"></path>
                <path d="M114.502831,18.5215897 C114.502804,18.2825954 114.446464,18.046722 114.338053,17.8317315 C114.203357,17.5892593 114.002777,17.3865809 113.757746,17.245352 C113.396511,17.0354221 113.008886,16.8708214 112.604298,16.7555527 C111.990475,16.5734164 111.366117,16.425995 110.734421,16.3140434 C109.866052,16.1424225 109.011372,15.911895 108.176774,15.6241852 C107.481451,15.3921623 106.821312,15.0720137 106.213762,14.6721808 C105.701697,14.3348319 105.271542,13.8947419 104.952849,13.3821459 C104.648492,12.8629051 104.495052,12.2742909 104.508664,11.6781961 C104.508067,11.0555453 104.665468,10.4421832 104.967178,9.89146328 C105.285425,9.31022637 105.730179,8.80196104 106.271076,8.4013695 C106.89067,7.94613055 107.589282,7.60043563 108.334388,7.38037933 C109.215823,7.11823449 110.134361,6.99021871 111.056814,7.0009573 C112.026976,6.98741063 112.993525,7.11770916 113.922525,7.38727791 C114.699356,7.60769782 115.427769,7.96307316 116.071808,8.43586242 C116.633332,8.85305495 117.09104,9.38570502 117.411528,9.99494201 C117.721422,10.5924454 117.880948,11.2517838 117.877206,11.9196465 L114.352381,11.9196465 C114.352036,11.6163208 114.281038,11.3169323 114.144617,11.0435265 C113.996913,10.7536752 113.78399,10.4991586 113.521325,10.2984796 C113.216355,10.0659594 112.868872,9.89047199 112.496834,9.78108596 C112.033001,9.64339453 111.549247,9.57818063 111.063978,9.58792566 C110.597285,9.58025412 110.1318,9.63599153 109.681272,9.75349163 C109.336269,9.84287199 109.009321,9.98745696 108.714095,10.1812037 C108.475004,10.3398938 108.280535,10.5532238 108.148117,10.8020761 C108.026956,11.0307217 107.963159,11.283537 107.961846,11.5402244 C107.960483,11.7771585 108.009235,12.0118789 108.105131,12.2300827 C108.220139,12.4644623 108.401393,12.6629027 108.628123,12.802665 C108.956203,13.0058038 109.313439,13.1615281 109.688437,13.26487 C110.264487,13.4308589 110.850701,13.5621855 111.443685,13.6580892 C112.361269,13.8087838 113.26633,14.0231994 114.151782,14.2996574 C114.876307,14.5202377 115.565792,14.8359455 116.200765,15.2378646 C116.74264,15.5621816 117.200777,16.0009688 117.540485,16.5210009 C117.855909,17.0666065 118.014207,17.6834574 117.998999,18.3077337 C118.006647,18.9653034 117.838906,19.6137597 117.511828,20.1910466 C117.170691,20.7900603 116.690056,21.304818 116.10763,21.6949376 C115.454043,22.1316163 114.726877,22.4560414 113.958346,22.6538405 C113.035956,22.8933101 112.083721,23.0093758 111.128456,22.9987696 C110.08751,23.0153745 109.051038,22.8638041 108.062146,22.5503618 C107.252232,22.2916833 106.497442,21.8943982 105.834055,21.3776028 C105.260205,20.9263056 104.79358,20.3617155 104.465678,19.721943 C104.162765,19.1367792 104.003445,18.4924513 104,17.8386301 L107.424525,17.8386301 C107.4406,18.2668675 107.574075,18.6833829 107.811396,19.045882 C108.034362,19.3761043 108.333472,19.6523177 108.685438,19.8530161 C109.051633,20.0616691 109.451011,20.2108342 109.867544,20.2945254 C110.298206,20.3853954 110.737727,20.431649 111.178606,20.432497 C112.045011,20.4848113 112.909166,20.3006957 113.671775,19.9013062 C114.185082,19.6175835 114.501961,19.0915028 114.502831,18.5215897 Z" id="Path"></path>
                <path d="M127.362805,3 L127.362805,6.84084162 L133.359756,6.84084162 L133.359756,9.45346586 L127.362805,9.45346586 L127.362805,17.0570543 C127.349364,17.5578133 127.421536,18.057196 127.57622,18.533755 C127.694437,18.8890794 127.897011,19.2105985 128.166667,19.470892 C128.421285,19.704217 128.728884,19.8723254 129.063008,19.960759 C129.431983,20.0583516 129.812407,20.1061075 130.194106,20.1027495 C130.510138,20.1026712 130.825949,20.086083 131.140244,20.0530528 L132.093496,19.9323609 C132.401762,19.8897638 132.686314,19.8400671 132.947154,19.7832709 C133.207995,19.7264748 133.426152,19.6744116 133.601626,19.6270815 L134,22.0480186 C133.707751,22.2118366 133.400454,22.3473461 133.082317,22.4526914 C132.70126,22.5804323 132.311324,22.6800933 131.91565,22.7508713 C131.493564,22.8265995 131.057249,22.8881287 130.606707,22.9354589 C130.156165,22.982789 129.707995,23.0040876 129.262195,22.9993546 C128.523266,23.006521 127.788079,22.893827 127.085366,22.665677 C126.447419,22.459868 125.865614,22.1100288 125.385163,21.6433458 C124.886438,21.1368427 124.507299,20.525619 124.275407,19.8542662 C123.986865,19.0116326 123.849597,18.1247907 123.869919,17.2345424 L123.869919,9.42506777 L120,9.42506777 L120,6.84084162 L123.869919,6.84084162 L123.869919,3 L127.362805,3 Z" id="Path"></path>
                <path d="M146.23652,7.00060671 C146.506127,7.00060671 146.775735,7.00060671 147.045343,7.00060671 C147.314951,7.00060671 147.571078,7.02867582 147.813725,7.08481405 L148.487745,7.21112504 C148.662446,7.24713895 148.833835,7.29879083 149,7.36550516 L148.528186,10.7688849 C147.540163,10.5303375 146.529555,10.4079393 145.515319,10.4039864 C144.569338,10.3507898 143.629884,10.5953084 142.81924,11.1057142 C142.121371,11.6137808 141.595357,12.3382335 141.316176,13.1758111 L141.316176,23 L138,23 L138,7.2883151 L141.10723,7.2883151 L141.262255,9.73734504 C141.841479,8.91632727 142.581156,8.23233878 143.432598,7.7304036 C144.290399,7.23747835 145.256831,6.98593822 146.23652,7.00060671 Z" id="Path"></path>
                <path d="M152.00033,14.8549293 C151.991654,13.7988578 152.154366,12.7485825 152.481894,11.7465338 C152.770892,10.8335518 153.231634,9.98659276 153.838412,9.25290994 C154.444523,8.54661482 155.194426,7.98325478 156.035972,7.60200658 C156.96582,7.18874585 157.972007,6.98380094 158.986399,7.00105013 C160.0074,6.98340511 161.020303,7.18830463 161.957175,7.60200658 C162.80382,7.9811382 163.558573,8.5446634 164.1683,9.25290994 C164.777109,9.98516668 165.238084,10.8325544 165.524818,11.7465338 C165.848602,12.7493305 166.008984,13.7993516 165.999599,14.8549293 L165.999599,15.1450462 C166.009125,16.205154 165.848758,17.2597433 165.524818,18.2672567 C165.239254,19.179668 164.778111,20.0250177 164.1683,20.7539731 C163.558802,21.4577585 162.806755,22.0186341 161.963957,22.3979689 C161.034237,22.8116434 160.02796,23.0166065 159.01353,22.9989254 C157.99251,23.016784 156.979564,22.8118756 156.042755,22.3979689 C155.19974,22.0190164 154.447618,21.4580845 153.838412,20.7539731 C153.230523,20.0236624 152.769603,19.1787226 152.481894,18.2672567 C152.154341,17.2604562 151.991647,16.2056357 152.00033,15.1450462 L152.00033,14.8549293 Z M155.337365,15.1519537 C155.333027,15.8191625 155.405877,16.4845692 155.554408,17.1344193 C155.685266,17.7139874 155.914823,18.2657229 156.232667,18.7646 C156.523953,19.2240505 156.919407,19.605468 157.385708,19.8767148 C157.894916,20.1586926 158.468015,20.2992468 159.047443,20.28426 C159.615962,20.2980662 160.177831,20.1573953 160.675265,19.8767148 C161.138152,19.6033006 161.53094,19.2222125 161.821523,18.7646 C162.138507,18.2652583 162.367998,17.7136813 162.499782,17.1344193 C162.647636,16.484451 162.720476,15.8191258 162.716825,15.1519537 L162.716825,14.8549293 C162.719415,14.1969362 162.646575,13.5408844 162.499782,12.9000939 C162.368978,12.3226615 162.139388,11.7731862 161.821523,11.2768208 C161.528801,10.8210182 161.136481,10.4403842 160.675265,10.1647059 C159.640817,9.61316925 158.40659,9.61316925 157.372143,10.1647059 C156.909255,10.4381201 156.516467,10.8192083 156.225885,11.2768208 C155.908887,11.773657 155.679364,12.3229715 155.547626,12.9000939 C155.400155,13.5407652 155.327306,14.1968984 155.330583,14.8549293 L155.337365,15.1519537 Z" id="Shape" fill-rule="nonzero"></path>
                <path d="M178.509996,18.5215897 C178.509968,18.2825954 178.453628,18.046722 178.345217,17.8317315 C178.210521,17.5892593 178.009942,17.3865809 177.764911,17.245352 C177.403675,17.0354221 177.01605,16.8708214 176.611462,16.7555527 C175.997639,16.5734164 175.373281,16.425995 174.741585,16.3140434 C173.873217,16.1424225 173.018537,15.911895 172.183938,15.6241852 C171.488616,15.3921623 170.828476,15.0720137 170.220926,14.6721808 C169.708862,14.3348319 169.278706,13.8947419 168.960013,13.3821459 C168.655656,12.8629051 168.502216,12.2742909 168.515828,11.6781961 C168.515231,11.0555453 168.672633,10.4421832 168.974342,9.89146328 C169.292589,9.31022637 169.737344,8.80196104 170.27824,8.4013695 C170.897834,7.94613055 171.596446,7.60043563 172.341552,7.38037933 C173.222988,7.11823449 174.141525,6.99021871 175.063978,7.0009573 C176.03414,6.98741063 177.00069,7.11770916 177.929689,7.38727791 C178.70652,7.60769782 179.434933,7.96307316 180.078972,8.43586242 C180.640497,8.85305495 181.098204,9.38570502 181.418692,9.99494201 C181.728586,10.5924454 181.888112,11.2517838 181.88437,11.9196465 L178.359546,11.9196465 C178.3592,11.6163208 178.288203,11.3169323 178.151782,11.0435265 C178.004078,10.7536752 177.791154,10.4991586 177.52849,10.2984796 C177.223519,10.0659594 176.876036,9.89047199 176.503998,9.78108596 C176.040165,9.64339453 175.556411,9.57818063 175.071142,9.58792566 C174.604449,9.58025412 174.138965,9.63599153 173.688437,9.75349163 C173.343433,9.84287199 173.016486,9.98745696 172.721259,10.1812037 C172.482168,10.3398938 172.2877,10.5532238 172.155281,10.8020761 C172.034121,11.0307217 171.970323,11.283537 171.96901,11.5402244 C171.967648,11.7771585 172.0164,12.0118789 172.112295,12.2300827 C172.227304,12.4644623 172.408558,12.6629027 172.635288,12.802665 C172.963367,13.0058038 173.320603,13.1615281 173.695601,13.26487 C174.271651,13.4308589 174.857865,13.5621855 175.450849,13.6580892 C176.368434,13.8087838 177.273495,14.0231994 178.158946,14.2996574 C178.883471,14.5202377 179.572956,14.8359455 180.207929,15.2378646 C180.7472,15.5630035 181.202824,16.0017298 181.540485,16.5210009 C181.855909,17.0666065 182.014207,17.6834574 181.998999,18.3077337 C182.006647,18.9653034 181.838906,19.6137597 181.511828,20.1910466 C181.170691,20.7900603 180.690056,21.304818 180.10763,21.6949376 C179.454043,22.1316163 178.726877,22.4560414 177.958346,22.6538405 C177.035956,22.8933101 176.083721,23.0093758 175.128456,22.9987696 C174.08751,23.0153745 173.051038,22.8638041 172.062146,22.5503618 C171.252232,22.2916833 170.497442,21.8943982 169.834055,21.3776028 C169.260205,20.9263056 168.79358,20.3617155 168.465678,19.721943 C168.162765,19.1367792 168.003445,18.4924513 168,17.8386301 L171.424525,17.8386301 C171.4406,18.2668675 171.574075,18.6833829 171.811396,19.045882 C172.034362,19.3761043 172.333472,19.6523177 172.685438,19.8530161 C173.051633,20.0616691 173.451011,20.2108342 173.867544,20.2945254 C174.298206,20.3853954 174.737727,20.431649 175.178606,20.432497 C176.045011,20.4848113 176.909166,20.3006957 177.671775,19.9013062 C178.187842,19.6193469 178.507654,19.0929328 178.509996,18.5215897 Z" id="Path"></path>
                <polygon id="Path" points="204 2 217 2 217 4.86648954 212.27074 4.86648954 212.27074 20.1195616 217 20.1195616 217 23 204 23 204 20.1474593 208.627242 20.1474593 208.627242 4.86648954 204 4.86648954"></polygon>
                <path d="M222.241017,7.28810172 L222.466796,9.46348737 C223.026871,8.707827 223.759413,8.08604433 224.608052,7.64598774 C225.465321,7.21128869 226.421554,6.98939678 227.390228,7.00038942 C228.162822,6.99269591 228.931173,7.1113351 229.662582,7.35125807 C230.33301,7.57483318 230.93933,7.94746571 231.432396,8.4389509 C231.96128,8.99095369 232.354562,9.65048206 232.583139,10.3687285 C232.877206,11.2767971 233.017386,12.2246107 232.99828,13.1756777 L232.99828,23 L229.414953,23 L229.414953,13.2318167 C229.429338,12.6828593 229.350615,12.1353211 229.181892,11.6108035 C229.052544,11.2155126 228.825041,10.8566025 228.519122,10.5652149 C228.22458,10.3006805 227.866841,10.1102612 227.477626,10.0108425 C227.021681,9.89339543 226.551177,9.83672886 226.079255,9.84242551 C225.35748,9.83293357 224.646916,10.0150164 224.025397,10.3687285 C223.436351,10.7132163 222.947688,11.1961172 222.605176,11.7722031 L222.605176,23 L219,23 L219,7.28810172 L222.241017,7.28810172 Z" id="Path"></path>
                <path d="M236.014789,14.5653191 C236.000475,13.4499428 236.14566,12.3382055 236.445988,11.2634656 C236.706084,10.3326953 237.137378,9.45791875 237.718024,8.68344587 C238.809683,7.22739213 240.541875,6.38605777 242.367783,6.42503526 C243.164901,6.40967876 243.956182,6.56316106 244.689069,6.875288 C245.361471,7.17762147 245.961625,7.61854641 246.449797,8.1688713 L246.449797,0 L250,0 L250,22.698456 L246.794756,22.698456 L246.61509,21.0761168 C246.129525,21.6842859 245.509897,22.1733331 244.804056,22.5054906 C244.029034,22.8487242 243.187232,23.0171291 242.339036,22.9986245 C241.427122,23.0115522 240.526097,22.800431 239.715911,22.3839938 C238.935053,21.9751374 238.255147,21.3990731 237.72521,20.6973327 C237.151416,19.9265804 236.720642,19.0601194 236.453174,18.1387536 C236.143506,17.0923675 235.990941,16.0062359 236.000416,14.9155157 L236.014789,14.5653191 Z M239.550618,14.8726344 C239.546619,15.5523202 239.616496,16.2304454 239.759031,16.8951984 C239.879909,17.4799424 240.103741,18.0388443 240.420202,18.5461251 C240.708682,19.0060406 241.105909,19.3888007 241.577252,19.6610367 C242.091228,19.9435911 242.671862,20.0842449 243.258927,20.0684082 C243.958054,20.099042 244.649965,19.9170494 245.242441,19.5466868 C245.767239,19.1814655 246.19011,18.6896174 246.471357,18.117313 L246.471357,11.18485 C246.175451,10.6371407 245.745348,10.1725451 245.220881,9.83409178 C244.638189,9.47239906 243.959673,9.29312675 243.2733,9.31951721 C242.680616,9.30221203 242.094353,9.44549602 241.577252,9.73403562 C241.103727,10.0127655 240.70638,10.4030045 240.420202,10.8703878 C240.103859,11.3887818 239.877891,11.9566161 239.751844,12.549902 C239.60535,13.21898 239.533051,13.9020122 239.536245,14.5867597 L239.550618,14.8726344 Z" id="Shape" fill-rule="nonzero"></path>
                <path d="M263.740172,20.5483917 C263.252962,21.2905367 262.604417,21.9082158 261.844924,22.3534392 C261.085716,22.7878439 260.227596,23.0107134 259.356979,22.9996041 C258.614535,23.0080964 257.876711,22.8796028 257.179166,22.6203334 C256.526707,22.3734845 255.945939,21.9628007 255.490672,21.4263331 C254.984479,20.8100501 254.611132,20.0921589 254.394873,19.3192737 C254.11409,18.3267514 253.981659,17.2967772 254.00204,16.2640377 L254.00204,7 L257.392812,7 L257.392812,16.3132024 C257.382053,16.9401982 257.437507,17.5665544 257.558216,18.1814617 C257.637442,18.6059541 257.80939,19.0068344 258.061318,19.3543914 C258.281379,19.6404702 258.578282,19.8552026 258.915903,19.9724621 C259.309729,20.1020292 259.722002,20.1637466 260.135754,20.155074 C260.904095,20.1910831 261.666624,20.0035064 262.334242,19.6142621 C262.88606,19.2576162 263.324241,18.7451758 263.595444,18.1393205 L263.595444,7 L267,7 L267,22.7256864 L263.933143,22.7256864 L263.740172,20.5483917 Z" id="Path"></path>
                <path d="M281.535106,18.5166242 C281.535079,18.2777329 281.478681,18.0419611 281.370159,17.8270633 C281.235325,17.5846956 281.03454,17.3821045 280.789258,17.2409365 C280.427653,17.031097 280.039631,16.8665673 279.634628,16.7513482 C279.020176,16.5692905 278.395179,16.4219327 277.762836,16.3100293 C276.893577,16.1384823 276.038021,15.9080541 275.202568,15.6204683 C274.506533,15.3885454 273.845717,15.0685349 273.237545,14.6688743 C272.724956,14.3316707 272.29436,13.8917704 271.97534,13.3793954 C271.670671,12.8603784 271.517074,12.2720178 271.5307,11.6761799 C271.530102,11.0537975 271.687665,10.4406997 271.989683,9.89021713 C272.308256,9.30923072 272.753467,8.80118443 273.294918,8.40076555 C273.915146,7.94572279 274.614474,7.60017686 275.360344,7.38021539 C276.242682,7.11818354 277.162161,6.99022293 278.085558,7.00095689 C279.056715,6.98741606 280.024254,7.11765843 280.954205,7.387111 C281.731833,7.60743592 282.460992,7.9626581 283.105691,8.43524359 C283.66779,8.85225633 284.125966,9.38467684 284.446783,9.99365127 C284.756995,10.5908971 284.916684,11.2499513 284.912938,11.9175262 L281.384503,11.9175262 C281.384156,11.6143313 281.313086,11.3150718 281.176526,11.0417839 C281.02867,10.7520574 280.815528,10.4976505 280.552595,10.2970581 C280.247312,10.0646381 279.899473,9.88922627 279.527054,9.77988738 C279.062746,9.6422553 278.578496,9.57706949 278.09273,9.58681032 C277.625559,9.57914209 277.159597,9.63485548 276.708608,9.75230494 C276.363251,9.84164678 276.035968,9.98616944 275.740439,10.1798327 C275.501103,10.3384544 275.306436,10.5516924 275.173882,10.8004375 C275.052597,11.0289846 274.988734,11.2816909 274.987419,11.5382677 C274.986056,11.7750997 275.034858,12.0097189 275.130852,12.2278286 C275.245978,12.4621073 275.427417,12.6604621 275.65438,12.8001642 C275.982795,13.0032155 276.340398,13.1588727 276.715779,13.26217 C277.29242,13.4280874 277.879235,13.5593574 278.472826,13.6552197 C279.39135,13.8058493 280.297339,14.0201726 281.183697,14.2965114 C281.908965,14.5169966 282.599156,14.8325684 283.23478,15.2343142 C283.768159,15.5724193 284.21451,16.0228144 284.540014,16.5513756 C284.855762,17.0967461 285.014221,17.7133312 284.998998,18.3373384 C285.006654,18.9946247 284.838741,19.6428015 284.511328,20.2198397 C284.170367,20.8070976 283.694522,21.3117968 283.120034,21.6955 C282.465777,22.1319906 281.737867,22.4562758 280.968549,22.6539897 C280.045213,22.893356 279.092003,23.0093718 278.13576,22.9987702 C277.093746,23.0153679 276.056213,22.8638628 275.066307,22.5505556 C274.255564,22.2919886 273.5,21.8948747 272.835934,21.378302 C272.261496,20.9271993 271.794393,20.3628525 271.466155,19.7233558 C271.162932,19.1384442 271.003449,18.4943939 271,17.8408545 L274.428033,17.8408545 C274.444125,18.2689074 274.577736,18.6852433 274.815301,19.0475861 C275.038495,19.3776661 275.337912,19.6537605 275.690238,19.8543724 C276.056809,20.0629354 276.456596,20.2120363 276.873555,20.2956914 C277.304658,20.3865222 277.74463,20.4327559 278.185961,20.4336035 C279.053253,20.4858952 279.918293,20.301859 280.681684,19.9026416 C281.206036,19.623153 281.532424,19.0930757 281.535106,18.5166242 Z" id="Path"></path>
                <path d="M294.365063,3 L294.365063,6.84357037 L300.340759,6.84357037 L300.340759,9.45805077 L294.365063,9.45805077 L294.365063,17.0670413 C294.35167,17.568156 294.423586,18.0678934 294.577722,18.5447911 C294.69552,18.9003679 294.897376,19.2221154 295.166076,19.4825938 C295.419792,19.7160846 295.726301,19.8843125 296.059241,19.9728089 C296.426907,20.0704708 296.805984,20.1182607 297.186329,20.1149002 C297.501241,20.1148219 297.815933,20.0982219 298.129114,20.0651682 L299.078987,19.9443906 C299.38616,19.9017632 299.669705,19.8520313 299.92962,19.7951947 C300.189536,19.7383582 300.40692,19.686258 300.581772,19.6388943 L301,22.0402377 C300.708787,22.2041721 300.402579,22.3397778 300.08557,22.445198 C299.689876,22.5778373 299.284645,22.679967 298.873418,22.7506943 C298.452827,22.8264764 298.018059,22.8880493 297.569114,22.935413 C297.120169,22.9827768 296.673586,23.0040905 296.229367,22.9993541 C295.493057,23.0065256 294.760475,22.8937516 294.060253,22.6654395 C293.424567,22.4594842 292.844824,22.1093965 292.366076,21.642382 C291.869119,21.135519 291.491324,20.5238611 291.260253,19.8520313 C290.972734,19.0087991 290.835953,18.121327 290.856203,17.2304463 L290.856203,9.41542337 L287,9.41542337 L287,6.84357037 L290.856203,6.84357037 L290.856203,3 L294.365063,3 Z" id="Path"></path>
                <path d="M313.23652,7.00051223 C313.506127,7.00051223 313.775735,7.00051223 314.045343,7.00051223 C314.314951,7.00051223 314.571078,7.02858151 314.813725,7.08472006 L315.487745,7.21103181 C315.662446,7.24704593 315.833835,7.29869811 316,7.36541283 L315.528186,10.7688126 C314.540163,10.5302639 313.529555,10.407865 312.515319,10.403912 C311.569338,10.3507151 310.629884,10.5952351 309.81924,11.105644 C309.121371,11.6137136 308.595357,12.3381705 308.316176,13.1757531 L308.316176,23 L305,23 L305,7.28822232 L308.10723,7.28822232 L308.262255,9.73726672 C308.843429,8.91549097 309.585462,8.23144506 310.439338,7.73031343 C311.295148,7.23856855 312.259108,6.98706562 313.23652,7.00051223 Z" id="Path"></path>
                <path d="M320.014054,7.02556579 L328.355135,7.02556579 L328.355135,20.0462636 L333,20.0462636 L333,23 L320,23 L320,20.0819368 L324.862703,20.0819368 L324.862703,9.95789828 L320,9.95789828 L320.014054,7.02556579 Z M324.588649,2.90175025 C324.57185,2.39454658 324.759667,1.90235364 325.108649,1.53903613 C325.502481,1.1639043 326.031272,0.970314794 326.57027,1.00393895 C327.115711,0.969435787 327.651348,1.16274349 328.052973,1.53903613 C328.7581,2.3064664 328.7581,3.49703411 328.052973,4.26446438 C327.651348,4.64075702 327.115711,4.83406472 326.57027,4.79956155 C326.031151,4.83404662 325.502034,4.64033753 325.108649,4.26446438 C324.759667,3.90114687 324.57185,3.40895393 324.588649,2.90175025 Z" id="Shape" fill-rule="nonzero"></path>
                <path d="M346.432143,22.7309269 C346.324276,22.511229 346.243181,22.2801057 346.190495,22.0422276 C346.128899,21.7851131 346.072041,21.5096334 346.019921,21.2157883 C345.767794,21.4696875 345.491785,21.700252 345.195476,21.9044877 C344.87542,22.1265544 344.532431,22.3158139 344.172027,22.4692212 C343.78089,22.6359506 343.373828,22.7651255 342.956681,22.8548928 C342.489993,22.9548102 342.013151,23.0033267 341.535224,22.9995197 C340.762021,23.0085654 339.992888,22.8897842 339.260893,22.648283 C338.621795,22.4385666 338.030531,22.1111738 337.519608,21.6841039 C336.543805,20.8589945 335.990466,19.6607522 336.005757,18.4058949 C335.927893,16.9137444 336.644024,15.4868913 337.903402,14.6249354 C339.187451,13.7388089 341.014023,13.2957456 343.383118,13.2957456 L345.941741,13.2957456 L345.941741,12.2902445 C345.974403,11.5430291 345.652328,10.8224273 345.067545,10.3343383 C344.381501,9.83142221 343.530482,9.58672164 342.67239,9.64563897 C342.256207,9.63920001 341.841486,9.69495028 341.442829,9.81092682 C341.121867,9.90331626 340.822533,10.0553619 340.561526,10.2585814 C340.3325,10.4446379 340.152258,10.6806585 340.035587,10.9472808 C339.915391,11.1863854 339.845335,11.4462183 339.829476,11.7117371 L336.332692,11.7117371 C336.335314,11.1061561 336.483766,10.5095267 336.766236,9.96932767 C337.071157,9.3843084 337.50266,8.86986978 338.031333,8.46107606 C338.640334,7.99218064 339.331207,7.6329583 340.071123,7.40047904 C340.961495,7.12164682 341.893152,6.98669523 342.82875,7.00103341 C343.710222,6.99467147 344.58825,7.10826785 345.437123,7.3384961 C346.190436,7.53671521 346.897406,7.87339896 347.519558,8.33022318 C348.105079,8.77025759 348.577092,9.33609175 348.898371,9.98310166 C349.245094,10.7072849 349.415317,11.4990294 349.395881,12.2971315 L349.395881,19.1841252 C349.392009,19.8003338 349.444333,20.4156688 349.552241,21.0229525 C349.637491,21.5192965 349.787967,22.0030226 350,22.4623342 L350,22.7309269 L346.432143,22.7309269 Z M342.217523,20.2722702 C342.64509,20.2742577 343.070865,20.2186292 343.48262,20.1069823 C343.854415,20.0067205 344.212366,19.8633532 344.548713,19.6799887 C344.848944,19.5158223 345.124047,19.311834 345.36605,19.0739333 C345.578833,18.868602 345.762831,18.637051 345.913311,18.3852339 L345.913311,15.4995836 L343.688731,15.4995836 C342.590227,15.4282595 341.49398,15.6675093 340.533097,16.1882829 C339.869485,16.6048217 339.482863,17.3305189 339.516755,18.0959802 C339.514652,18.3948421 339.570089,18.6914627 339.680223,18.9706284 C339.785744,19.2342579 339.953727,19.4701667 340.170625,19.6593278 C340.412789,19.8659997 340.695667,20.0229689 341.002178,20.1207563 C341.395484,20.2241904 341.803761,20.2637526 342.210416,20.2378352 L342.217523,20.2722702 Z" id="Shape" fill-rule="nonzero"></path>
                <polygon id="Path" points="353 1 361.310345 1 361.310345 20.1391688 366 20.1391688 366 23 353 23 353 20.1668766 357.889655 20.1668766 357.889655 3.84697733 353 3.84697733"></polygon>
                <path d="M376.594034,22.9969196 C375.534758,23.0094111 374.483161,22.8148046 373.497709,22.4239199 C372.602495,22.0686038 371.787613,21.5356348 371.101662,20.8568001 C370.430603,20.1837244 369.902704,19.3804292 369.550067,18.4957651 C369.178119,17.5608176 368.99154,16.5617658 369.00083,15.5548267 L369.00083,14.9680197 C368.985557,13.8526381 369.181264,12.7445023 369.577529,11.7026116 C369.938627,10.7744857 370.472196,9.92399903 371.14972,9.19660075 C371.793358,8.49458813 372.577076,7.93705632 373.449651,7.56044489 C374.318067,7.18937175 375.25227,6.99914459 376.195837,7.00125237 C377.203799,6.98246357 378.204578,7.17526706 379.134257,7.5673485 C379.955326,7.92242891 380.683702,8.4634765 381.262551,9.14827547 C381.85162,9.85819729 382.292872,10.679871 382.560124,11.5645394 C382.861462,12.5577004 383.009645,13.5914358 382.999514,14.6297428 L382.999514,16.0656939 L372.399235,16.0656939 C372.449888,16.6437052 372.598494,17.2087448 372.838625,17.7363679 C373.06349,18.234016 373.37769,18.6857009 373.765463,19.0687648 C374.161178,19.4509184 374.627713,19.7511599 375.138556,19.9524271 C375.674624,20.1719006 376.248686,20.2821885 376.82746,20.2768968 C377.64496,20.2859938 378.454169,20.11146 379.196046,19.7660296 C379.88423,19.4553352 380.487292,18.9815755 380.953605,18.3853073 L382.79355,20.1250173 C382.524369,20.5229023 382.206009,20.8847873 381.846115,21.2019807 C381.428613,21.5667668 380.967327,21.8775458 380.473022,22.1270646 C379.918258,22.4112342 379.333247,22.6312531 378.729194,22.7829077 C378.029275,22.944367 377.311877,23.0162735 376.594034,22.9969196 Z M376.182106,9.75579326 C375.730113,9.75102234 375.281799,9.83789626 374.863937,10.0112269 C374.453888,10.1833748 374.082606,10.4369672 373.772328,10.7568169 C373.435271,11.1059988 373.159082,11.5097495 372.955338,11.9511416 C372.722612,12.4596978 372.563105,12.9989923 372.481621,13.5527794 L379.649166,13.5527794 L379.649166,13.2973458 C379.622075,12.8479526 379.534308,12.4043547 379.388279,11.9787561 C379.245647,11.5640143 379.026725,11.1799427 378.742925,10.8465638 C378.450191,10.5051498 378.087073,10.2318869 377.678778,10.0457449 C377.20864,9.8426503 376.700517,9.74375747 376.188972,9.75579326 L376.182106,9.75579326 Z" id="Shape" fill-rule="nonzero"></path>
                <path d="M396.555082,18.5511022 C396.555055,18.312211 396.498396,18.0764391 396.389371,17.8615413 C396.249566,17.6018956 396.034413,17.3863995 395.769755,17.2409365 C395.406475,17.031097 395.016656,16.8665673 394.609777,16.7513482 C393.992479,16.5692905 393.364587,16.4219327 392.729315,16.3100293 C391.856031,16.1384823 390.996512,15.9080541 390.157189,15.6204683 C389.457931,15.3885454 388.794054,15.0685349 388.183065,14.6688743 C387.668101,14.3316707 387.235511,13.8917704 386.915014,13.3793954 C386.608934,12.8603784 386.454625,12.2720178 386.468314,11.6761799 C386.467714,11.0537975 386.626007,10.4406997 386.929424,9.89021713 C387.249472,9.30923072 387.696745,8.80118443 388.240703,8.40076555 C388.863804,7.94572279 389.566372,7.60017686 390.315696,7.38021539 C391.202121,7.11818354 392.125858,6.99022293 393.053533,7.00095689 C394.029187,6.98741606 395.001208,7.11765843 395.935467,7.387111 C396.716695,7.60743592 397.449232,7.9626581 398.096917,8.43524359 C398.66162,8.85225633 399.121918,9.38467684 399.444221,9.99365127 C399.755869,10.5908971 399.916298,11.2499513 399.912535,11.9175262 L396.367757,11.9175262 C396.367409,11.6143313 396.29601,11.3150718 396.158817,11.0417839 C396.010276,10.7520574 395.796147,10.4976505 395.531996,10.2970581 C395.225299,10.0646381 394.875849,9.88922627 394.501705,9.77988738 C394.035246,9.6422553 393.548754,9.57706949 393.060738,9.58681032 C392.591403,9.57914209 392.123283,9.63485548 391.670205,9.75230494 C391.323248,9.84164678 390.99445,9.98616944 390.697552,10.1798327 C390.457107,10.3384544 390.261538,10.5516924 390.12837,10.8004375 C390.006524,11.0289846 389.942365,11.2816909 389.941044,11.5382677 C389.939674,11.7750997 389.988702,12.0097189 390.085141,12.2278286 C390.2008,12.4621073 390.38308,12.6604621 390.611094,12.8001642 C390.94103,13.0032155 391.300289,13.1588727 391.67741,13.26217 C392.256721,13.4280874 392.846254,13.5593574 393.442594,13.6552197 C394.365373,13.8058493 395.275558,14.0201726 396.166021,14.2965114 C396.894648,14.5169966 397.588036,14.8325684 398.226604,15.2343142 C398.762454,15.5724193 399.210872,16.0228144 399.537884,16.5513756 C399.855094,17.0967461 400.014287,17.7133312 399.998993,18.3373384 C400.006685,18.9946247 399.837994,19.6428015 399.509064,20.2198397 C399.166524,20.8070976 398.688476,21.3117968 398.111327,21.6955 C397.45404,22.1319906 396.722758,22.4562758 395.949876,22.6539897 C395.022264,22.893356 394.064639,23.0093718 393.103967,22.9987702 C392.057127,23.0153679 391.014788,22.8638628 390.020298,22.5505556 C389.228636,22.2852877 388.492066,21.8884576 387.844438,21.378302 C387.267339,20.9271993 386.798072,20.3628525 386.468314,19.7233558 C386.163687,19.1384442 386.003465,18.4943939 386,17.8408545 L389.443911,17.8408545 C389.460077,18.2689074 389.594307,18.6852433 389.832972,19.0475861 C390.0572,19.3776661 390.358004,19.6537605 390.711962,19.8543724 C391.08023,20.0629354 391.481869,20.2120363 391.900759,20.2956914 C392.33386,20.3865222 392.775869,20.4327559 393.219244,20.4336035 C394.090553,20.4858952 394.9596,20.301859 395.726526,19.9026416 C396.231158,19.6222838 396.545534,19.1094752 396.555082,18.5511022 Z" id="Path"></path>
            </g>
        </g>
    </g>
</svg>