<?xml version="1.0" encoding="UTF-8"?>
<svg width="400px" height="97px" viewBox="0 0 400 97" version="1.1" xmlns="http://www.w3.org/2000/svg" xmlns:xlink="http://www.w3.org/1999/xlink">
    <!-- Generator: Sketch 52.5 (67469) - http://www.bohemiancoding.com/sketch -->
    <title>Logo/Symbol/Claim</title>
    <desc>Created with Sketch.</desc>
    <g id="Logo/Symbol/Claim" stroke="none" stroke-width="1" fill="none" fill-rule="evenodd">
        <g id="HERCO-brand">
            <path d="M111.075838,38.0565693 C105.493783,32.2367218 97.7551998,29.0033807 89.707231,29.1283212 L89.707231,0 L0,0 L0,60.2816058 L12.1128748,60.2816058 C11.8208496,62.0912098 11.6745798,63.9214872 11.675485,65.7546715 C11.5431893,73.8753445 14.7418766,81.6937378 20.5220459,87.3778832 C26.1294459,93.2195093 33.901237,96.4631046 41.9823633,96.3344526 C50.0459667,96.4685214 57.8002074,93.2226476 63.3791887,87.3778832 C65.2103806,85.5360065 66.8204007,83.4852814 68.1763668,81.2675912 C68.1763668,81.2675912 68.1763668,81.2675912 68.1763668,81.2675912 C73.8338086,87.019935 81.5515485,90.2578927 89.6049383,90.2578927 C97.6583281,90.2578927 105.376068,87.019935 111.03351,81.2675912 C116.824537,75.6003827 120.045331,67.7968513 119.943563,59.679781 C120.053694,51.5591348 116.849756,43.746597 111.075838,38.0565693 Z M57.707231,81.5862044 C53.610999,85.8832432 47.9139896,88.2698943 41.989418,88.1708759 C36.0648464,88.2698943 30.367837,85.8832432 26.2716049,81.5862044 C22.0212821,77.4337128 19.6634036,71.7071307 19.7530864,65.7546715 C19.7342212,63.9111805 19.9451466,62.0725579 20.3809524,60.2816058 L59.3650794,60.2816058 C59.3801872,65.0504731 60.5546703,69.7435918 62.7865961,73.9536496 C61.6239298,76.8157296 59.8961236,79.4120335 57.707231,81.5862044 Z M61.0582011,19.8248175 C61.0152579,17.0716839 62.0929617,14.4200594 64.042328,12.4825547 C68.0599741,8.47269097 74.5502552,8.47269097 78.5679012,12.4825547 C80.5248507,14.4171684 81.6124831,17.0681531 81.5802469,19.8248175 C81.6072404,22.5721614 80.5198266,25.21239 78.5679012,27.1387591 C74.5502552,31.1486229 68.0599741,31.1486229 64.042328,27.1387591 C62.0979979,25.2094988 61.0205119,22.5686361 61.0582011,19.8248175 Z M105.361552,75.5042336 C101.208596,79.7175033 95.5488605,82.0883333 89.643739,82.0883333 C83.7386175,82.0883333 78.0788821,79.7175033 73.9259259,75.5042336 C73.0639328,74.6448715 72.2757171,73.7140521 71.5696649,72.7216788 C68.9131438,69.1072192 67.4725774,64.7375871 67.4567901,60.2462044 C67.4402989,60.0459375 67.4402989,59.8446464 67.4567901,59.6443796 C67.3942293,53.6930206 69.7385901,47.9705039 73.9541446,43.7845255 C78.0696693,39.519932 83.7570837,37.1501104 89.6719577,37.2352555 L89.7354497,37.2352555 C95.6311295,37.1533631 101.297671,39.5240639 105.389771,43.7845255 C109.652011,47.9411495 112.01352,53.6805987 111.915344,59.6443796 C112.021906,65.6257508 109.648204,71.3828147 105.361552,75.539635 L105.361552,75.5042336 Z" id="Shape" fill="#003E90"></path>
            <g id="_Grupo_" transform="translate(99.470899, 31.861314)" fill="#E20029">
                <path d="M291.57672,4.7579562 C297.164021,7.92992701 300.091711,11.9656934 300.451499,16.9148175 C300.811287,21.8639416 298.335097,26.3032847 293.241623,30.1408029 C288.148148,33.9783212 281.791887,36.2015328 274.194004,36.6759124 C266.59612,37.150292 260.084656,35.8475182 254.440917,32.7180292 C248.797178,29.5885401 245.982363,25.4890511 245.664903,20.5328467 C245.347443,15.5766423 247.724868,11.1868613 252.832451,7.30686131 C257.940035,3.42686131 264.282187,1.28861314 271.880071,0.771751825 C279.477954,0.254890511 285.989418,1.5859854 291.57672,4.7579562 Z M266.024691,15.8386131 C264.536155,19.4778832 264,22.819781 264.43739,25.9846715 C264.87478,29.149562 266.088183,31.0754015 268.197531,31.9037956 C270.306878,32.7321898 272.564374,32.130365 275.118166,30.1762044 C277.81304,27.9468419 279.892373,25.0603104 281.156966,21.7931387 C282.645503,18.1538686 283.181658,14.8119708 282.758377,11.689562 C282.335097,8.56715328 281.093474,6.55635036 278.998236,5.77043796 C276.902998,4.98452555 274.624339,5.50846715 272.077601,7.4980292 C269.368353,9.69953327 267.28137,12.5752837 266.024691,15.8386131 Z" id="_Trazado_compuesto_" fill-rule="nonzero"></path>
                <g id="_Grupo_2" transform="translate(186.243386, 0.000000)">
                    <path d="M29.0934744,0.757591241 C20.8112875,1.27445255 13.8412698,3.44810219 8.25396825,7.29270073 C2.66666667,11.1372993 0,15.5766423 0.373897707,20.5328467 C0.747795414,25.4890511 3.93650794,29.560219 10.0811287,32.7321898 C16.2257496,35.9041606 23.3932981,37.2069343 31.7107584,36.690073 C39.8706643,36.2180535 46.7254556,34.0939659 52.2751323,30.3178102 C52.5925926,30.119562 52.5925926,29.7655474 52.2751323,29.3690511 L48.7477954,24.4128467 C48.5502646,24.0965937 48.2727807,24.0965937 47.9153439,24.4128467 C47.6047323,24.7237284 47.2748568,25.0146 46.9276896,25.2837226 C40.3161104,29.7397596 31.8357245,30.3095119 24.691358,26.7776642 C21.5238095,24.9580292 19.8165785,22.6215328 19.6190476,19.7681752 C19.4215168,16.9148175 20.8112875,14.380073 23.7389771,12.1639416 C26.918192,9.85481334 30.7095341,8.5461907 34.6313933,8.40430657 C38.9911817,8.12817518 42.7513228,8.87868613 45.9188713,10.6983212 C47.3215551,11.4666679 48.5606506,12.5033981 49.5661376,13.749927 C49.8412698,14.1039416 50.1587302,14.1039416 50.5185185,13.7924088 L55.9858907,9.15481752 C56.120161,9.04693369 56.1947091,8.88094819 56.1863289,8.70853044 C56.1779487,8.53611269 56.0876577,8.37819732 55.9435626,8.28394161 C54.3781954,6.85972398 52.617857,5.66759787 50.7160494,4.74379562 C44.6208113,1.5859854 37.3897707,0.283211679 29.0934744,0.757591241 Z" id="_Trazado_"></path>
                </g>
                <g id="_Grupo_3" transform="translate(117.813051, 0.708029)" fill-rule="nonzero">
                    <path d="M65.1710758,6.46430657 C64.6037296,4.62312272 63.4295479,3.03022379 61.8412698,1.94708029 C60.1410935,0.877956204 57.4814815,0.403576642 53.9541446,0.481459854 L22.2081129,0.481459854 C22.0303005,0.480528013 21.8597265,0.552071541 21.7354497,0.679708029 L21.6578483,0.877956204 C16.5678615,11.053724 10.6699168,20.8017301 4.02116402,30.0275182 C2.83127572,31.6512652 1.64373898,33.2348905 0.458553792,34.7783942 C0.0634920635,35.2527737 0.261022928,35.5289051 0.931216931,35.5713869 L20.5432099,35.5713869 C20.9398052,35.5853461 21.3095632,35.3709324 21.4955908,35.0191241 C22.4056437,33.3127737 23.2804233,31.6489051 24.1904762,30.0629197 C26.3068783,26.1050365 27.7954145,23.5278102 28.5855379,22.3808029 C28.8753084,22.0002007 29.3371486,21.792417 29.8130511,21.8285401 L34.9206349,21.8285401 C38.3703704,21.9064234 39.8589065,23.449927 39.3156966,26.4236496 C38.8783069,28.760146 37.5731922,31.5356204 35.35097,34.7429927 C34.9559083,35.2952555 35.1534392,35.6138686 35.9435626,35.6138686 L57.8483245,35.6138686 C58.281672,35.6781855 58.693188,35.4028452 58.8007055,34.9766423 C60.2680776,28.5618978 59.7107584,24.0871533 57.1358025,21.5878102 C56.6184597,21.0308273 56.6184597,20.6343309 57.1358025,20.3983212 C60.6631393,18.6140876 63.0405644,16.3979562 64.303351,13.7074453 C65.5661376,11.0169343 65.9259259,8.49635036 65.1710758,6.46430657 Z M46.4691358,13.4525547 C44.9664903,15.0385401 42.6666667,15.8315328 39.654321,15.8669343 L33.5943563,15.8244526 C33.1569665,15.8244526 33.0793651,15.5483212 33.3968254,15.0314599 C34.8077601,12.7728467 36.4444444,10.2805839 38.4268078,7.5829927 C38.6243386,7.26437956 39.0617284,7.10861314 39.7319224,7.06613139 L42.5537919,7.06613139 C45.7213404,7.18649635 47.4920635,8.05737226 47.6613757,9.72124088 C47.9203059,11.0874593 47.4714395,12.4922615 46.4691358,13.4525547 Z" id="_Trazado_compuesto_2"></path>
                </g>
                <g id="_Grupo_4" transform="translate(64.902998, 0.708029)">
                    <path d="M64.1975309,0.998321168 C64.2383066,0.955334664 64.2653329,0.90108568 64.2751323,0.842554745 C64.4726631,0.601824818 64.3527337,0.446058394 64.0352734,0.488540146 L22.5749559,0.488540146 C22.3971435,0.487608305 22.2265695,0.559151833 22.1022928,0.686788321 L22.0246914,0.885036496 C16.0682567,12.8572198 8.95601082,24.2141077 0.790123457,34.7925547 C0.712522046,34.870438 0.670194004,34.9129197 0.670194004,34.9908029 C0.55026455,35.1465693 0.55026455,35.3094161 0.670194004,35.3872993 C0.790123457,35.4651825 0.987654321,35.5430657 1.2627866,35.5855474 L41.8694885,35.5855474 C42.2360651,35.5639295 42.5661276,35.3555556 42.7442681,35.0332847 C43.0194004,34.5589051 43.2592593,34.0420438 43.5343915,33.5676642 C44.1693122,32.300292 45.1992945,30.4806569 46.5044092,28.1016788 C46.70194,27.7051825 46.5820106,27.5069343 46.1446208,27.4715328 L26.3915344,28.179562 C25.9188713,28.1016788 25.7566138,27.8255474 25.9964727,27.3865693 C26.4338624,26.5935766 27.7813051,24.299562 29.9964727,20.4974453 C30.2671832,20.0628342 30.7574568,19.8168072 31.2663139,19.860219 L49.968254,20.7735766 C50.3981132,20.846436 50.8308418,20.6610979 51.0758377,20.2991971 C51.35097,19.7823358 52.0634921,18.6353285 53.2557319,16.7590511 C54.3280423,15.0951825 54.8783069,14.1818248 54.9206349,14.1039416 C55.1604938,13.7074453 55.0758377,13.5516788 54.6031746,13.5516788 L34.9135802,13.870292 C34.4761905,13.870292 34.3209877,13.6720438 34.5185185,13.3180292 C35.7883598,11.4134307 36.6984127,10.1460584 37.968254,8.36182482 C38.1657848,8.04321168 38.5608466,7.92284672 39.1534392,7.96532847 L57.968254,8.20605839 C58.4464314,8.29646385 58.9351941,8.11387487 59.2380952,7.73167883 C60.64903,5.74919708 61.8553792,4.08532847 62.8430335,2.70467153 L64.1975309,0.998321168 Z" id="_Trazado_2"></path>
                </g>
                <g id="_Grupo_5" transform="translate(0.000000, 0.708029)">
                    <path d="M75.1604938,0.481459854 L55.7883598,0.481459854 C55.6105474,0.480528013 55.4399734,0.552071541 55.3156966,0.679708029 L55.2380952,0.877956204 C53.0229277,5.27481752 50.8783069,9.23270073 48.8183422,12.7232847 C48.6282672,13.0935871 48.2456901,13.3239669 47.8306878,13.3180292 L35.1887125,13.3180292 C34.6713698,13.3557908 34.5914168,13.119781 34.9488536,12.61 C37.6790123,8.48927007 40.4585538,4.56678832 43.308642,0.849635036 C43.4638448,0.608905109 43.35097,0.453138686 43.0335097,0.495620438 L22.5114638,0.495620438 C22.3336515,0.494688597 22.1630774,0.566232125 22.0388007,0.693868613 L21.9611993,0.892116788 C17.4391578,9.89843811 12.3028985,18.5806426 6.58906526,26.8767883 C4.64902998,29.609781 2.70899471,32.2648905 0.726631393,34.799635 C0.331569665,35.2740146 0.529100529,35.550146 1.19929453,35.5926277 L20.8112875,35.5926277 C21.2078828,35.606587 21.5776408,35.3921732 21.7636684,35.040365 C24.9312169,29.0221168 27.8236332,23.8676642 30.4409171,19.6690511 C30.7028987,19.3311945 31.1272002,19.1630275 31.5485009,19.230073 L44.345679,19.230073 C44.7407407,19.1875912 44.8183422,19.350438 44.6631393,19.6265693 C41.2580835,25.0123114 37.7048795,30.07 34.0035273,34.799635 C33.6084656,35.2740146 33.8059965,35.550146 34.4761905,35.5926277 L54.0881834,35.5926277 C54.4847788,35.606587 54.8545368,35.3921732 55.0405644,35.040365 C55.3156966,34.5659854 55.5555556,34.0491241 55.8306878,33.5747445 C58.9582598,27.6320195 62.2057613,22.0220681 65.5731922,16.7448905 C68.7007643,11.7178832 71.9082892,7.02364964 75.1957672,2.66218978 C75.633157,2.06744526 76.1058201,1.47270073 76.6067019,0.842554745 C76.7619048,0.601824818 76.64903,0.446058394 76.3315697,0.488540146 L75.1604938,0.481459854 Z" id="_Trazado_3"></path>
                </g>
            </g>
        </g>
        <g id="Group" transform="translate(165.000000, 83.000000)" fill="#003E90">
            <path d="M6.90908762,9.55041699 C6.91531043,9.27436386 6.852165,9.00120336 6.72551536,8.75630271 C6.59516843,8.51915382 6.41592471,8.31285216 6.19983117,8.15126325 C5.95056315,7.9655356 5.67851651,7.81301369 5.3904444,7.69748366 C5.05753384,7.55942265 4.71774845,7.43881353 4.37245279,7.33614065 C3.87707372,7.18982486 3.39201774,7.01014913 2.92056312,6.7983278 C2.45928973,6.59718663 2.02705898,6.3343144 1.63555731,6.01681851 C1.26779986,5.71587297 0.959302657,5.34818344 0.726040219,4.93278948 C0.487954723,4.49248647 0.368563275,3.9970499 0.379756187,3.49582077 C0.370648793,2.98679016 0.489785419,2.4837377 0.726040219,2.03364209 C0.95886176,1.60440493 1.28039079,1.23045015 1.66893409,0.937008076 C2.0779849,0.626667945 2.53849947,0.391933646 3.02903763,0.243733699 C3.55183029,0.0804136949 4.09627418,-0.00176078895 4.64363908,3.72519963e-05 C5.21174933,-0.00216202498 5.77608725,0.0930344516 6.31247778,0.281548665 C6.8178746,0.452324176 7.28750308,0.715869248 7.69761391,1.0588563 C8.08887237,1.39445207 8.40704265,1.80785759 8.63216358,2.27313687 C8.86468129,2.76229974 8.98448109,3.29803779 8.98261971,3.84035713 L6.91743181,3.84035713 C6.89363777,3.54208222 6.82615353,3.24899402 6.71717117,2.97061291 C6.61157833,2.71720699 6.45536567,2.48837837 6.25824052,2.29834685 C6.05830311,2.10290724 5.81938115,1.9525228 5.55732827,1.85717225 C5.25073563,1.74789965 4.92708076,1.69523549 4.60191811,1.70171072 C4.31540423,1.69887297 4.03003524,1.73851314 3.75498247,1.81935728 C3.50613861,1.89276801 3.2737801,2.01405117 3.0707586,2.17649863 C2.88177702,2.32902357 2.72802309,2.52114425 2.62017215,2.73952145 C2.50835321,2.97248731 2.45260999,3.22870806 2.45746037,3.48741745 C2.45126813,3.76108598 2.53002623,4.02987986 2.6827536,4.25632176 C2.83834156,4.48701931 3.03666353,4.68532009 3.26684715,4.8403529 C3.5280666,5.01217151 3.80804717,5.15315386 4.1012665,5.26051919 C4.41278306,5.37816575 4.7382066,5.48600843 5.07753714,5.58404723 C5.58945641,5.73668487 6.08882876,5.92913972 6.57114778,6.15967504 C7.02525288,6.37958976 7.44655125,6.66244574 7.82277681,7.00000762 C8.17723931,7.31247234 8.46898121,7.69043099 8.68222874,8.11344829 C8.90041481,8.56453419 9.00909058,9.06136103 8.9993081,9.56302198 C9.01032297,10.0794613 8.88966185,10.5901186 8.64885197,11.046209 C8.41632905,11.4710834 8.09281814,11.8385094 7.701786,12.1218347 C7.28526345,12.4211269 6.81901293,12.6430982 6.32499407,12.7772941 C5.79392071,12.926397 5.24502722,13.0013267 4.69370424,12.9999822 C4.30989035,12.9998146 3.92701398,12.9618186 3.55054973,12.8865373 C3.17654998,12.8125825 2.81149428,12.6984865 2.46163247,12.5462026 C2.11844139,12.3986082 1.79358809,12.2110579 1.49370602,11.9873815 C1.19997109,11.7680084 0.938688116,11.5077032 0.717696025,11.2142755 C0.493982829,10.9174909 0.317996502,10.5871277 0.19618393,10.235288 C0.0634102193,9.8416321 -0.00287183077,9.42833925 9.53821478e-05,9.01260414 L2.08614376,9.01260414 C2.10619268,9.35750876 2.19114153,9.69543463 2.33646957,10.0083982 C2.46060731,10.282875 2.64287969,10.5266711 2.87049795,10.7226809 C3.1093111,10.913993 3.38279423,11.0566983 3.67571263,11.1428472 C4.00599067,11.2416963 4.34917456,11.2898559 4.69370424,11.2857038 C4.98673771,11.2876663 5.27867603,11.2495019 5.56150037,11.1722589 C5.81486074,11.1043029 6.05379566,10.9903961 6.26658472,10.8361258 C6.4630761,10.6926846 6.62434595,10.5058382 6.73803165,10.2899097 C6.85486525,10.0614395 6.91363677,9.80736416 6.90908762,9.55041699 Z" id="Path"></path>
            <path d="M16.9939522,11.6209703 C16.6941305,12.0384269 16.2950256,12.3858714 15.8276453,12.6363096 C15.3604405,12.8806622 14.8323667,13.0060263 14.2966025,12.9997773 C13.8397141,13.0045542 13.3856683,12.9322766 12.9564099,12.7864375 C12.5548968,12.647585 12.1975011,12.4165754 11.9173365,12.1148124 C11.6058331,11.7681532 11.3760812,11.3643394 11.2429991,10.9295915 C11.0702091,10.3712977 10.988713,9.79193719 11.0012555,9.21102119 L11.0012555,4 L13.0878845,4 L13.0878845,9.23867634 C13.0812634,9.59136147 13.1153887,9.94368686 13.1896712,10.2895722 C13.2384256,10.5283492 13.3442402,10.7538443 13.4992727,10.9493452 C13.6346947,11.1102645 13.8174042,11.2310515 14.0251711,11.29701 C14.2675255,11.3698914 14.5212323,11.4046075 14.7758486,11.3997291 C15.2486736,11.4199842 15.7179226,11.3144724 16.1287646,11.0955224 C16.4683449,10.8949091 16.7379945,10.6066614 16.9048888,10.2658678 L16.9048888,4 L19,4 L19,12.8456986 L17.1254268,12.8456986 L16.9939522,11.6209703 Z" id="Path"></path>
            <path d="M22.7832838,4.16263618 L22.8329344,5.10597247 C23.0003602,4.78619197 23.2529022,4.51397458 23.5652807,4.31656972 C23.8966529,4.11749594 24.2827143,4.01718001 24.6741439,4.02843771 C25.0151128,4.01646796 25.3529517,4.09430708 25.6506056,4.2534175 C25.9157964,4.40948357 26.1205657,4.64361405 26.2340001,4.92046282 C26.4077621,4.64688476 26.6474915,4.41684179 26.933246,4.24947048 C27.2457164,4.07674527 27.6025141,3.99062831 27.9634958,4.00080861 C28.2462398,3.99816842 28.5269736,4.04637349 28.7910057,4.14290111 C29.0434841,4.23875676 29.2657913,4.39509035 29.4364634,4.59680769 C29.6287062,4.83067367 29.7694396,5.0991789 29.8502184,5.38621045 C29.9570388,5.76302608 30.0071907,6.15240946 29.9991701,6.54268548 L29.9991701,13 L28.1165851,13 L28.1165851,6.52689742 C28.1506694,6.26388497 28.0681906,5.99923182 27.8890199,5.79669988 C27.722891,5.65968598 27.5085375,5.58776458 27.2890752,5.59540218 C27.0906203,5.58474803 26.8945026,5.64059473 26.7346436,5.75328273 C26.5956299,5.86285896 26.4922821,6.00800321 26.43674,6.17166619 L26.43674,13 L24.5789803,13 L24.5789803,6.52689742 C24.6068943,6.26810707 24.5282601,6.00909958 24.3596902,5.80459391 C24.1962335,5.65762058 23.975447,5.58311582 23.7514704,5.59934919 C23.552252,5.58842892 23.3547242,5.63969339 23.1887637,5.7453887 C23.0489319,5.84785858 22.9403647,5.98413174 22.8743099,6.14009008 L22.8743099,13 L21,13 L21,4.16263618 L22.7832838,4.16263618 Z" id="Path"></path>
            <path d="M32,3.5605616 L37.1416216,3.5605616 L37.1416216,11.2546103 L40,11.2546103 L40,13 L32,13 L32,11.2756899 L34.9924324,11.2756899 L34.9924324,5.29330353 L32,5.29330353 L32,3.5605616 Z M34.8151351,1.12376151 C34.8047975,0.824050253 34.9203769,0.53320897 35.1351351,0.318521347 C35.3774937,0.0968525425 35.7029036,-0.0175412597 36.0345946,0.00232756385 C36.3702503,-0.0180606731 36.6998731,0.096166608 36.947027,0.318521347 C37.3809511,0.772002874 37.3809511,1.47552015 36.947027,1.92900168 C36.6998731,2.15135642 36.3702503,2.2655837 36.0345946,2.24519546 C35.702829,2.265573 35.3772181,2.15110854 35.1351351,1.92900168 C34.9203769,1.71431406 34.8047975,1.42347277 34.8151351,1.12376151 Z" id="Shape" fill-rule="nonzero"></path>
            <path d="M43.8510467,4.16205722 L43.9799961,5.38571164 C44.2998725,4.96065269 44.7182507,4.61089993 45.2029348,4.36336811 C45.6925481,4.11884989 46.2386829,3.99403569 46.7919233,4.00021905 C47.233176,3.99589145 47.6720053,4.06262599 48.0897358,4.19758267 C48.4726383,4.32334367 48.8189268,4.53294946 49.1005321,4.80940988 C49.4040932,5.11952475 49.6301488,5.49053904 49.7619174,5.89490978 C49.9298685,6.40569837 50.0099294,6.93884352 49.9990177,7.47381871 L49.9990177,13 L47.9483075,13 L47.9483075,7.50539689 C47.9565228,7.19660837 47.9115619,6.8886181 47.8151985,6.59357698 C47.7413242,6.37122582 47.6113899,6.16933892 47.4366699,6.0054334 C47.2684479,5.85663276 47.0641318,5.74952192 46.8418391,5.69359889 C46.5814343,5.62753493 46.3127145,5.59565998 46.0431852,5.59886435 C45.6307324,5.5892102 45.2234451,5.68754034 44.8660027,5.88306796 C44.52958,6.07684235 44.2504892,6.34847411 44.0548699,6.67252243 L44.0548699,12.9881582 L42,12.9881582 L42,4.16205722 L43.8510467,4.16205722 Z" id="Path"></path>
            <path d="M52,3.5605616 L57.1416216,3.5605616 L57.1416216,11.2546103 L60,11.2546103 L60,13 L52,13 L52,11.2756899 L54.9924324,11.2756899 L54.9924324,5.29330353 L52,5.29330353 L52,3.5605616 Z M54.8151351,1.12376151 C54.8047975,0.824050253 54.9203769,0.53320897 55.1351351,0.318521347 C55.3774937,0.0968525425 55.7029036,-0.0175412597 56.0345946,0.00232756385 C56.3702503,-0.0180606731 56.6998731,0.096166608 56.947027,0.318521347 C57.3809511,0.772002874 57.3809511,1.47552015 56.947027,1.92900168 C56.6998731,2.15135642 56.3702503,2.2655837 56.0345946,2.24519546 C55.702829,2.265573 55.3772181,2.15110854 55.1351351,1.92900168 C54.9203769,1.71431406 54.8047975,1.42347277 54.8151351,1.12376151 Z" id="Shape" fill-rule="nonzero"></path>
            <path d="M67.0016179,10.4808942 C67.0016024,10.3464599 66.9694079,10.2137811 66.9074588,10.092849 C66.8304896,9.95645835 66.7158728,9.84245173 66.5758551,9.7630105 C66.3694348,9.64492491 66.1479349,9.55233705 65.9167415,9.48749837 C65.5659855,9.38504671 65.2092097,9.30212221 64.8482407,9.23914941 C64.35203,9.14261266 63.8636413,9.01294091 63.386728,8.85110415 C62.9894007,8.72059127 62.6121783,8.54050772 62.2650068,8.3156017 C61.9723984,8.12584293 61.7265955,7.87829232 61.5444851,7.58995708 C61.3705667,7.29788415 61.2828868,6.96678865 61.290665,6.6314853 C61.2903237,6.28124424 61.3802676,5.93622807 61.5526729,5.62644809 C61.7345283,5.29950233 61.988674,5.01360308 62.2977578,4.78827035 C62.6518112,4.53219844 63.0510183,4.33774504 63.4767932,4.21396337 C63.9804705,4.0665069 64.5053492,3.99449802 65.032465,4.00053848 C65.5868434,3.99291848 66.1391573,4.0662114 66.6700142,4.21784382 C67.1139177,4.34183003 67.5301536,4.54172865 67.8981761,4.80767261 C68.2190471,5.04234341 68.480594,5.34195907 68.6637304,5.68465488 C68.8408126,6.02075054 68.9319701,6.39162836 68.9298321,6.76730114 L66.9156466,6.76730114 C66.9154489,6.59668045 66.874879,6.42827442 66.7969242,6.27448367 C66.7125219,6.11144229 66.5908512,5.96827671 66.4407573,5.85539479 C66.2664885,5.72460217 66.0679269,5.6258905 65.8553334,5.56436085 C65.5902862,5.48690943 65.3138552,5.4502266 65.0365588,5.45570818 C64.7698772,5.45139294 64.5038859,5.48274524 64.2464413,5.54883904 C64.0492963,5.59911549 63.8624693,5.68044454 63.6937685,5.7894271 C63.557145,5.87869029 63.4460202,5.99868839 63.3703525,6.13866783 C63.3011179,6.26728098 63.2646621,6.40948957 63.2639118,6.55387625 C63.2631333,6.68715167 63.2909916,6.81918185 63.3457893,6.9419215 C63.4115083,7.07376005 63.5150819,7.18538274 63.644642,7.26399906 C63.8321158,7.37826465 64.0362509,7.46585958 64.2505352,7.52398938 C64.5797066,7.61735815 64.9146864,7.69122937 65.2535341,7.74517518 C65.7778682,7.82994086 66.295046,7.95054967 66.8010181,8.10605726 C67.2150325,8.23013368 67.6090241,8.40771932 67.9718658,8.63379881 C68.2815084,8.81622713 68.5433009,9.06304495 68.7374201,9.35556298 C68.9176625,9.66246614 69.008118,10.0094448 68.9994279,10.3606002 C69.0037982,10.7304832 68.9079461,11.0952398 68.7210446,11.4199637 C68.5261092,11.7569089 68.2514609,12.0464601 67.9186455,12.2659024 C67.5451672,12.5115342 67.1296439,12.6940233 66.6904835,12.8052853 C66.1634032,12.9399869 65.6192693,13.0052739 65.0734037,12.9993079 C64.4785769,13.0086481 63.8863074,12.9233898 63.321226,12.7470785 C62.8584183,12.6015719 62.4271095,12.378099 62.0480315,12.0874016 C61.7201169,11.8335469 61.4534741,11.515965 61.2661017,11.156093 C61.0930088,10.8269383 61.0019688,10.4645038 61,10.0967294 L62.9568713,10.0967294 C62.966057,10.337613 63.0423283,10.5719029 63.1779405,10.7758086 C63.3053496,10.9615587 63.4762697,11.1169287 63.677393,11.2298216 C63.8866476,11.3471888 64.1148635,11.4310943 64.352882,11.4781705 C64.5989748,11.5292849 64.8501296,11.5553026 65.1020608,11.5557796 C65.5971491,11.5852063 66.0909519,11.4816413 66.5267286,11.2569847 C66.8200468,11.0973907 67.0011203,10.8014703 67.0016179,10.4808942 Z" id="Path"></path>
            <path d="M75.2073171,1 L75.2073171,3.30450497 L78.6341463,3.30450497 L78.6341463,4.87207951 L75.2073171,4.87207951 L75.2073171,9.43423261 C75.1996368,9.73468799 75.2408776,10.0343176 75.3292683,10.320253 C75.3968211,10.5334477 75.5125779,10.7263591 75.6666667,10.8825352 C75.8121631,11.0225302 75.9879339,11.1233952 76.1788618,11.1764554 C76.3897043,11.2350109 76.60709,11.2636645 76.8252033,11.2616497 C77.0057931,11.2616027 77.1862568,11.2516498 77.3658537,11.2318317 L77.9105691,11.1594165 C78.0867209,11.1338583 78.2493225,11.1040403 78.398374,11.0699626 C78.5474255,11.0358849 78.6720867,11.004647 78.7723577,10.9762489 L79,12.4288112 C78.8330009,12.5271019 78.6574025,12.6084077 78.4756098,12.6716148 C78.2578631,12.7482594 78.0350425,12.808056 77.8089431,12.8505228 C77.5677507,12.8959597 77.3184282,12.9328772 77.0609756,12.9612753 C76.803523,12.9896734 76.5474255,13.0024526 76.2926829,12.9996128 C75.8704378,13.0039126 75.4503307,12.9362962 75.0487805,12.7994062 C74.6842394,12.6759208 74.3517792,12.4660173 74.0772358,12.1860075 C73.7922502,11.8821056 73.5755996,11.5153714 73.4430894,11.1125597 C73.2782084,10.6069796 73.1997697,10.0748744 73.2113821,9.54072544 L73.2113821,4.85504066 L71,4.85504066 L71,3.30450497 L73.2113821,3.30450497 L73.2113821,1 L75.2073171,1 Z" id="Path"></path>
            <path d="M85.4926471,4.00034128 C85.6397059,4.00034128 85.7867647,4.00034128 85.9338235,4.00034128 C86.0808824,4.00034128 86.2205882,4.01613015 86.3529412,4.0477079 L86.7205882,4.11875784 C86.8158799,4.13901566 86.9093644,4.16806984 87,4.20559665 L86.7426471,6.11999774 C86.2037255,5.98581486 85.6524843,5.91696587 85.0992647,5.91474236 C84.5832753,5.88481925 84.0708456,6.02236097 83.6286765,6.30946424 C83.2480204,6.59525173 82.9611041,7.00275633 82.8088235,7.47389377 L82.8088235,13 L81,13 L81,4.16217724 L82.6948529,4.16217724 L82.7794118,5.53975658 C83.0953519,5.07793409 83.4988125,4.69319056 83.9632353,4.41085202 C84.4311268,4.13358157 84.9582713,3.99209025 85.4926471,4.00034128 Z" id="Path"></path>
            <path d="M89.0001886,8.41839772 C88.9952306,7.82435753 89.0882092,7.23357764 89.275368,6.66992529 C89.4405099,6.15637291 89.7037906,5.67995843 90.0505214,5.26726184 C90.3968705,4.86997084 90.8253864,4.55308081 91.3062698,4.3386287 C91.8376112,4.10616954 92.4125757,3.99088803 92.9922283,4.0005907 C93.5756572,3.99066537 94.1544587,4.10592135 94.6898141,4.3386287 C95.1736114,4.55189024 95.6048989,4.86887316 95.953314,5.26726184 C96.3012054,5.67915626 96.5646194,6.15581187 96.7284674,6.66992529 C96.9134869,7.2339984 97.0051337,7.82463527 96.999771,8.41839772 L96.999771,8.58158849 C97.0052143,9.17789911 96.913576,9.77110562 96.7284674,10.3378319 C96.5652879,10.8510632 96.3017775,11.3265724 95.953314,11.7366099 C95.6050295,12.1324892 95.1752885,12.4479817 94.6936898,12.6613575 C94.1624214,12.8940494 93.5874058,13.0093411 93.0077313,12.9993955 C92.4242917,13.009441 91.8454651,12.89418 91.3101455,12.6613575 C90.828423,12.4481967 90.3986388,12.1326725 90.0505214,11.7366099 C89.7031558,11.3258101 89.4397732,10.8505315 89.275368,10.3378319 C89.0881947,9.77150659 88.9952269,9.17817007 89.0001886,8.58158849 L89.0001886,8.41839772 Z M90.9070658,8.58547398 C90.904587,8.96077891 90.9462153,9.33507016 91.0310903,9.70061085 C91.1058663,10.0266179 91.2370419,10.3369692 91.418667,10.6175875 C91.5851159,10.8760284 91.8110894,11.0905757 92.0775473,11.2431521 C92.3685232,11.4017646 92.6960085,11.4808263 93.0271102,11.4723962 C93.3519781,11.4801622 93.6730463,11.4010349 93.9572942,11.2431521 C94.2218012,11.0893566 94.4462515,10.8749945 94.6122987,10.6175875 C94.7934324,10.3367078 94.9245703,10.0264457 94.9998754,9.70061085 C95.0843632,9.33500367 95.1259864,8.96075825 95.1238999,8.58547398 L95.1238999,8.41839772 C95.1253802,8.04827662 95.083757,7.6792475 94.9998754,7.31880284 C94.9251302,6.9939971 94.7939361,6.68491725 94.6122987,6.40571167 C94.4450289,6.14932271 94.2208461,5.93521613 93.9572942,5.78014709 C93.3661813,5.4699077 92.6609087,5.4699077 92.0697958,5.78014709 C91.8052888,5.93394256 91.5808385,6.14830464 91.4147912,6.40571167 C91.2336494,6.68518204 91.1024938,6.99417148 91.0272146,7.31880284 C90.9429458,7.67918041 90.9013175,8.04825535 90.90319,8.41839772 L90.9070658,8.58547398 Z" id="Shape" fill-rule="nonzero"></path>
            <path d="M105.005712,10.4808942 C105.005696,10.3464599 104.973502,10.2137811 104.911553,10.092849 C104.834583,9.95645835 104.719967,9.84245173 104.579949,9.7630105 C104.373529,9.64492491 104.152029,9.55233705 103.920835,9.48749837 C103.570079,9.38504671 103.213304,9.30212221 102.852335,9.23914941 C102.356124,9.14261266 101.867735,9.01294091 101.390822,8.85110415 C100.993495,8.72059127 100.616272,8.54050772 100.269101,8.3156017 C99.9764923,8.12584293 99.7306894,7.87829232 99.548579,7.58995708 C99.3746606,7.29788415 99.2869807,6.96678865 99.2947589,6.6314853 C99.2944176,6.28124424 99.3843615,5.93622807 99.5567667,5.62644809 C99.7386222,5.29950233 99.9927678,5.01360308 100.301852,4.78827035 C100.655905,4.53219844 101.055112,4.33774504 101.480887,4.21396337 C101.984564,4.0665069 102.509443,3.99449802 103.036559,4.00053848 C103.590937,3.99291848 104.143251,4.0662114 104.674108,4.21784382 C105.118012,4.34183003 105.534247,4.54172865 105.90227,4.80767261 C106.223141,5.04234341 106.484688,5.34195907 106.667824,5.68465488 C106.844907,6.02075054 106.936064,6.39162836 106.933926,6.76730114 L104.91974,6.76730114 C104.919543,6.59668045 104.878973,6.42827442 104.801018,6.27448367 C104.716616,6.11144229 104.594945,5.96827671 104.444851,5.85539479 C104.270582,5.72460217 104.072021,5.6258905 103.859427,5.56436085 C103.59438,5.48690943 103.317949,5.4502266 103.040653,5.45570818 C102.773971,5.45139294 102.50798,5.48274524 102.250535,5.54883904 C102.05339,5.59911549 101.866563,5.68044454 101.697862,5.7894271 C101.561239,5.87869029 101.450114,5.99868839 101.374446,6.13866783 C101.305212,6.26728098 101.268756,6.40948957 101.268006,6.55387625 C101.267227,6.68715167 101.295086,6.81918185 101.349883,6.9419215 C101.415602,7.07376005 101.519176,7.18538274 101.648736,7.26399906 C101.83621,7.37826465 102.040345,7.46585958 102.254629,7.52398938 C102.583801,7.61735815 102.91878,7.69122937 103.257628,7.74517518 C103.781962,7.82994086 104.29914,7.95054967 104.805112,8.10605726 C105.219126,8.23013368 105.613118,8.40771932 105.97596,8.63379881 C106.284114,8.81668944 106.544471,9.06347299 106.73742,9.35556298 C106.917663,9.66246614 107.008118,10.0094448 106.999428,10.3606002 C107.003798,10.7304832 106.907946,11.0952398 106.721045,11.4199637 C106.526109,11.7569089 106.251461,12.0464601 105.918645,12.2659024 C105.545167,12.5115342 105.129644,12.6940233 104.690484,12.8052853 C104.163403,12.9399869 103.619269,13.0052739 103.073404,12.9993079 C102.478577,13.0086481 101.886307,12.9233898 101.321226,12.7470785 C100.858418,12.6015719 100.42711,12.378099 100.048032,12.0874016 C99.7201169,11.8335469 99.4534741,11.515965 99.2661017,11.156093 C99.0930088,10.8269383 99.0019688,10.4645038 99,10.0967294 L100.956871,10.0967294 C100.966057,10.337613 101.042328,10.5719029 101.17794,10.7758086 C101.30535,10.9615587 101.47627,11.1169287 101.677393,11.2298216 C101.886648,11.3471888 102.114864,11.4310943 102.352882,11.4781705 C102.598975,11.5292849 102.85013,11.5553026 103.102061,11.5557796 C103.597149,11.5852063 104.090952,11.4816413 104.526729,11.2569847 C104.821624,11.0983826 105.004374,10.8022747 105.005712,10.4808942 Z" id="Path"></path>
            <polygon id="Path" points="120 1 128 1 128 2.63799402 125.089686 2.63799402 125.089686 11.3540352 128 11.3540352 128 13 120 13 120 11.3699768 122.847534 11.3699768 122.847534 2.63799402 120 2.63799402"></polygon>
            <path d="M130.85201,4.16205722 L130.981026,5.38571164 C131.301069,4.96065269 131.719665,4.61089993 132.204601,4.36336811 C132.694469,4.11884989 133.240888,3.99403569 133.794416,4.00021905 C134.235898,3.99589145 134.674956,4.06262599 135.092904,4.19758267 C135.476006,4.32334367 135.822474,4.53294946 136.104226,4.80940988 C136.406446,5.11991145 136.631179,5.49089616 136.761794,5.89490978 C136.929832,6.40569837 137.009935,6.93884352 136.999017,7.47381871 L136.999017,13 L134.951402,13 L134.951402,7.50539689 C134.959622,7.19660837 134.914637,6.8886181 134.818224,6.59357698 C134.744311,6.37122582 134.614309,6.16933892 134.439498,6.0054334 C134.271189,5.85663276 134.066766,5.74952192 133.844358,5.69359889 C133.583818,5.62753493 133.314958,5.59565998 133.045289,5.59886435 C132.632846,5.59352514 132.226809,5.6959467 131.871656,5.89490978 C131.535058,6.08868417 131.255822,6.36031593 131.060101,6.68436425 L131.060101,13 L129,13 L129,4.16205722 L130.85201,4.16205722 Z" id="Path"></path>
            <path d="M139.008451,8.23257165 C139.000272,7.60214159 139.083234,6.97376834 139.25485,6.36630664 C139.403476,5.84021908 139.64993,5.34578016 139.981728,4.90803462 C140.605533,4.08504772 141.595357,3.60951091 142.638733,3.63154167 C143.094229,3.62286191 143.546389,3.70961277 143.965183,3.88603235 C144.349412,4.05691649 144.692357,4.30613492 144.971313,4.61718813 L144.971313,0 L147,0 L147,12.8295621 L145.168432,12.8295621 L145.065766,11.9125877 C144.7883,12.2563355 144.434227,12.5327535 144.030889,12.7204947 C143.58802,12.9144963 143.10699,13.0096817 142.622307,12.9992226 C142.101212,13.0065295 141.586341,12.8872001 141.123378,12.6518226 C140.677173,12.4207298 140.288655,12.0951283 139.985835,11.6984924 C139.657952,11.2628498 139.411796,10.773111 139.258957,10.252339 C139.082004,9.66090336 138.994823,9.04700291 139.000238,8.43050885 L139.008451,8.23257165 Z M141.028925,8.40627164 C141.02664,8.79044186 141.066569,9.17372999 141.148018,9.54945995 C141.217091,9.87996747 141.344995,10.1958685 141.52583,10.4825925 C141.690676,10.7425447 141.917662,10.9588874 142.187001,11.1127599 C142.480701,11.2724645 142.812493,11.3519645 143.147958,11.3430133 C143.547459,11.3603281 143.942837,11.2574627 144.281395,11.0481273 C144.581279,10.8416979 144.82292,10.5636968 144.983633,10.2402204 L144.983633,6.32187175 C144.814544,6.01229689 144.56877,5.74969939 144.269075,5.5583997 C143.936108,5.35396469 143.548385,5.25263686 143.156172,5.26755321 C142.817495,5.25777202 142.482488,5.33875862 142.187001,5.50184622 C141.916416,5.65938922 141.68936,5.87995904 141.52583,6.14413223 C141.345062,6.43713751 141.215938,6.75808736 141.143911,7.09342288 C141.0602,7.4715974 141.018886,7.85765909 141.020711,8.24469026 L141.028925,8.40627164 Z" id="Shape" fill-rule="nonzero"></path>
            <path d="M154.993952,11.6209703 C154.694131,12.0384269 154.295026,12.3858714 153.827645,12.6363096 C153.36044,12.8806622 152.832367,13.0060263 152.296602,12.9997773 C151.839714,13.0045542 151.385668,12.9322766 150.95641,12.7864375 C150.554897,12.647585 150.197501,12.4165754 149.917336,12.1148124 C149.605833,11.7681532 149.376081,11.3643394 149.242999,10.9295915 C149.070209,10.3712977 148.988713,9.79193719 149.001255,9.21102119 L149.001255,4 L151.087884,4 L151.087884,9.23867634 C151.081263,9.59136147 151.115389,9.94368686 151.189671,10.2895722 C151.238426,10.5283492 151.34424,10.7538443 151.499273,10.9493452 C151.634695,11.1102645 151.817404,11.2310515 152.025171,11.29701 C152.267526,11.3698914 152.521232,11.4046075 152.775849,11.3997291 C153.248674,11.4199842 153.717923,11.3144724 154.128765,11.0955224 C154.468345,10.8949091 154.737995,10.6066614 154.904889,10.2658678 L154.904889,4 L157,4 L157,12.8456986 L155.112703,12.8456986 L154.993952,11.6209703 Z" id="Path"></path>
            <path d="M165.020061,10.4781011 C165.020045,10.3437248 164.987818,10.2111031 164.925805,10.0902231 C164.848757,9.95389126 164.734023,9.83993378 164.593862,9.76052678 C164.38723,9.64249209 164.165503,9.54994413 163.934073,9.48513339 C163.582958,9.38272588 163.225816,9.29983713 162.864477,9.23689146 C162.367758,9.14039632 161.878869,9.01078046 161.401467,8.84901344 C161.003733,8.71855681 160.626124,8.53855087 160.278597,8.31374178 C159.985689,8.12406479 159.739634,7.87662087 159.557337,7.58840989 C159.383241,7.29646284 159.295471,6.96551004 159.303257,6.63035119 C159.302915,6.28026108 159.392951,5.93539361 159.565533,5.62574713 C159.747575,5.29894228 160.001981,5.01316624 160.311382,4.78793062 C160.665798,4.53196907 161.065414,4.33759948 161.491625,4.21387116 C161.995818,4.06647824 162.521235,3.9945004 163.04889,4.00053825 C163.603837,3.99292153 164.156717,4.06618287 164.688117,4.21774994 C165.132476,4.3416827 165.549138,4.54149518 165.917538,4.80732452 C166.238737,5.04189418 166.500552,5.34138072 166.683876,5.68392884 C166.86114,6.01987964 166.952391,6.39059763 166.950251,6.7661085 L164.934001,6.7661085 C164.933804,6.59556134 164.893192,6.42722789 164.815157,6.27350342 C164.730669,6.11053231 164.608873,5.96742843 164.458626,5.85459516 C164.284178,5.72385891 164.085413,5.62518978 163.872602,5.56368665 C163.607283,5.4862686 163.330569,5.44960159 163.052989,5.45508081 C162.786034,5.45076743 162.51977,5.48210621 162.262062,5.54817153 C162.064715,5.59842631 161.877696,5.67972031 161.708822,5.7886559 C161.572059,5.87788062 161.46082,5.997827 161.385075,6.13774612 C161.31577,6.26630384 161.279276,6.40845114 161.278525,6.55277559 C161.277746,6.68599357 161.305633,6.81796686 161.360487,6.94065361 C161.426273,7.07243533 161.529953,7.18400992 161.659646,7.26259236 C161.847312,7.3768087 162.051656,7.46436588 162.26616,7.52247063 C162.595668,7.61579916 162.930991,7.68963854 163.270186,7.7435611 C163.795057,7.82829025 164.312765,7.94884708 164.819256,8.10428765 C165.233694,8.2283106 165.628089,8.4058197 165.991303,8.63180176 C166.296091,8.82198586 166.551148,9.07533311 166.737151,9.37264877 C166.917578,9.67941966 167.008126,10.0262488 166.999427,10.3772528 C167.003802,10.7469764 166.907852,11.1115759 166.720759,11.4361598 C166.525924,11.7664924 166.254013,12.0503857 165.925734,12.2662188 C165.551873,12.5117447 165.135924,12.6941551 164.696314,12.8053692 C164.168693,12.9400128 163.624002,13.0052716 163.077577,12.9993082 C162.482141,13.0086444 161.889264,12.9234228 161.323604,12.7471875 C160.860322,12.6017436 160.428572,12.378367 160.049105,12.0877949 C159.720855,11.8340496 159.453939,11.5166046 159.266374,11.1568876 C159.093104,10.8278749 159.001971,10.4655966 159,10.0979807 L160.958876,10.0979807 C160.968071,10.3387604 161.044421,10.5729493 161.180172,10.7767672 C161.307711,10.9624372 161.478807,11.1177403 161.680136,11.2305845 C161.889605,11.3479012 162.118055,11.4317704 162.356317,11.4788264 C162.602662,11.5299187 162.854074,11.5559252 163.106263,11.556402 C163.601859,11.5858161 164.096168,11.4822957 164.532391,11.2577359 C164.832021,11.1005235 165.018528,10.8023551 165.020061,10.4781011 Z" id="Path"></path>
            <path d="M173.208608,1 L173.208608,3.30614222 L176.623291,3.30614222 L176.623291,4.87483046 L173.208608,4.87483046 L173.208608,9.44022476 C173.200955,9.7408936 173.242049,10.0407361 173.330127,10.3268746 C173.39744,10.5402208 173.512786,10.7332693 173.666329,10.8895563 C173.81131,11.0296508 173.986458,11.1305875 174.176709,11.1836853 C174.386804,11.2422825 174.603419,11.2709564 174.820759,11.2689401 C175.000709,11.2688932 175.180533,11.2589331 175.359494,11.2391009 L175.902278,11.1666344 C176.077806,11.1410579 176.239831,11.1112188 176.388354,11.0771168 C176.536878,11.0430149 176.661097,11.0117548 176.761013,10.9833366 L177,12.4241426 C176.833593,12.5225032 176.658617,12.6038667 176.477468,12.6671188 C176.251358,12.7467024 176.019797,12.8079802 175.78481,12.8504166 C175.544473,12.8958858 175.296034,12.9328296 175.039494,12.9612478 C174.782954,12.9896661 174.527764,13.0024543 174.273924,12.9996125 C173.853175,13.0039154 173.434557,12.936251 173.03443,12.7992637 C172.671181,12.6756905 172.3399,12.4656379 172.066329,12.1854292 C171.782354,11.8813114 171.566471,11.5143166 171.43443,11.1112188 C171.270134,10.6052794 171.191973,10.0727962 171.203544,9.53826778 L171.203544,4.84925402 L169,4.84925402 L169,3.30614222 L171.203544,3.30614222 L171.203544,1 L173.208608,1 Z" id="Path"></path>
            <path d="M183.492647,4.00028813 C183.639706,4.00028813 183.786765,4.00028813 183.933824,4.00028813 C184.080882,4.00028813 184.220588,4.0160771 184.352941,4.04765504 L184.720588,4.11870539 C184.81588,4.13896333 184.909364,4.16801769 185,4.20554472 L184.742647,6.11995711 C184.203725,5.98577344 183.652484,5.91692404 183.099265,5.91470052 C182.583275,5.88477724 182.070846,6.02231976 181.628676,6.30942473 C181.24802,6.5952139 180.961104,7.00272091 180.808824,7.47386113 L180.808824,13 L179,13 L179,4.16212505 L180.694853,4.16212505 L180.779412,5.53971253 C181.096416,5.07746367 181.501161,4.69268785 181.966912,4.4108013 C182.433717,4.13419481 182.959513,3.99272441 183.492647,4.00028813 Z" id="Path"></path>
            <path d="M188.008649,3.5605616 L193.141622,3.5605616 L193.141622,11.2546103 L196,11.2546103 L196,13 L188,13 L188,11.2756899 L190.992432,11.2756899 L190.992432,5.29330353 L188,5.29330353 L188.008649,3.5605616 Z M190.823784,1.12376151 C190.813446,0.824050253 190.929026,0.53320897 191.143784,0.318521347 C191.386142,0.0968525425 191.711552,-0.0175412597 192.043243,0.00232756385 C192.378899,-0.0180606731 192.708522,0.096166608 192.955676,0.318521347 C193.3896,0.772002874 193.3896,1.47552015 192.955676,1.92900168 C192.708522,2.15135642 192.378899,2.2655837 192.043243,2.24519546 C191.711478,2.265573 191.385867,2.15110854 191.143784,1.92900168 C190.929026,1.71431406 190.813446,1.42347277 190.823784,1.12376151 Z" id="Shape" fill-rule="nonzero"></path>
            <path d="M203.961225,12.8486464 C203.899586,12.7250663 203.853246,12.5950595 203.82314,12.461253 C203.787942,12.3166261 203.755452,12.1616688 203.725669,11.9963809 C203.581597,12.1391992 203.423877,12.2688917 203.254558,12.3837743 C203.071669,12.5086868 202.875675,12.6151453 202.66973,12.7014369 C202.446223,12.7952222 202.213616,12.8678831 201.975246,12.9183772 C201.708568,12.9745807 201.436087,13.0018713 201.162985,12.9997298 C200.721155,13.0048181 200.28165,12.9380036 199.863367,12.8021592 C199.498169,12.6841937 199.160304,12.5000353 198.868348,12.2598084 C198.310745,11.7956844 197.994552,11.1216731 198.00329,10.4158159 C197.958796,9.5764812 198.368014,8.77387637 199.087658,8.28902616 C199.821401,7.79057999 200.865156,7.54135691 202.218925,7.54135691 L203.680995,7.54135691 L203.680995,6.97576255 C203.699659,6.55545386 203.515616,6.15011535 203.181454,5.87556531 C202.789429,5.59267499 202.303133,5.45503092 201.812794,5.48817192 C201.574975,5.48455 201.337992,5.51590953 201.110188,5.58114634 C200.926781,5.6331154 200.755733,5.71864104 200.606586,5.83295204 C200.475714,5.93760883 200.372719,6.07037042 200.30605,6.22034543 C200.237366,6.35484177 200.197335,6.50099781 200.188272,6.6503521 L198.19011,6.6503521 C198.191608,6.30971281 198.276438,5.9741088 198.437849,5.67024682 C198.61209,5.34117348 198.858663,5.05180175 199.160762,4.82185529 C199.508762,4.55810161 199.903547,4.35603904 200.326356,4.22526946 C200.83514,4.06842634 201.367515,3.99251607 201.902143,4.00058129 C202.405841,3.9970027 202.907571,4.06090067 203.392642,4.19040405 C203.823106,4.30190231 204.227089,4.49128692 204.582604,4.74825054 C204.917188,4.9957699 205.18691,5.31405161 205.370498,5.67799468 C205.568625,6.08534775 205.665896,6.53070403 205.654789,6.97963649 L205.654789,10.8535704 C205.652577,11.2001877 205.682476,11.5463137 205.744138,11.8879108 C205.792852,12.1671043 205.878838,12.4392002 206,12.697563 L206,12.8486464 L203.961225,12.8486464 Z M201.552871,11.465652 C201.797194,11.46677 202.040494,11.4354789 202.275783,11.3726776 C202.488237,11.3162803 202.692781,11.2356361 202.884979,11.1324937 C203.05654,11.0401501 203.213741,10.9254066 203.352029,10.7915875 C203.473619,10.6760886 203.57876,10.5458412 203.664749,10.4041941 L203.664749,8.78101576 L202.393561,8.78101576 C201.765844,8.74089599 201.139417,8.87547397 200.590341,9.16840916 C200.211134,9.40271222 199.990208,9.81091689 200.009574,10.2414889 C200.008373,10.4095987 200.040051,10.5764478 200.102984,10.7334785 C200.163282,10.8817701 200.259273,11.0144688 200.383215,11.1208719 C200.521594,11.2371248 200.683238,11.32542 200.858387,11.3804254 C201.083134,11.4386071 201.316435,11.4608608 201.548809,11.4462823 L201.552871,11.465652 Z" id="Shape" fill-rule="nonzero"></path>
            <polygon id="Path" points="207 0 212.114058 0 212.114058 11.3095088 215 11.3095088 215 13 207 13 207 11.3258816 210.009019 11.3258816 210.009019 1.68230479 207 1.68230479"></polygon>
            <path d="M221.339448,12.9982673 C220.734147,13.0052938 220.133235,12.8958276 219.57012,12.6759549 C219.058569,12.4760896 218.592922,12.1762946 218.20095,11.7944501 C217.817487,11.415845 217.515831,10.9639914 217.314324,10.4663679 C217.101782,9.94045992 216.995166,9.37849324 217.000474,8.81209002 L217.000474,8.48201111 C216.991747,7.85460894 217.103579,7.23128256 217.330016,6.64521904 C217.536359,6.12314822 217.841255,5.64474946 218.228412,5.23558792 C218.596205,4.84070582 219.044043,4.52709418 219.542658,4.31525025 C220.038895,4.10652161 220.572726,3.99951883 221.111907,4.00070446 C221.687885,3.99013576 222.259759,4.09858772 222.791004,4.31913353 C223.260186,4.51886626 223.676401,4.82320553 224.007172,5.20840495 C224.343783,5.60773598 224.595927,6.06992743 224.748642,6.56755342 C224.920835,7.12620649 225.005512,7.70768266 224.999722,8.29173032 L224.999722,9.09945284 L218.94242,9.09945284 C218.971365,9.42458416 219.056282,9.74241894 219.1935,10.0392069 C219.321994,10.319134 219.501537,10.5732067 219.723121,10.7886802 C219.949244,11.0036416 220.215836,11.1725274 220.507746,11.2857402 C220.814071,11.4091941 221.142106,11.471231 221.472834,11.4682544 C221.939977,11.4733715 222.402382,11.3751963 222.826312,11.1808916 C223.21956,11.006126 223.564167,10.7396362 223.830631,10.4042354 L224.882028,11.3828223 C224.728211,11.6066325 224.546291,11.8101928 224.340637,11.9886141 C224.102065,12.1938063 223.838472,12.3686195 223.556013,12.5089738 C223.239005,12.6688192 222.904713,12.7925799 222.559539,12.8778856 C222.159586,12.9687065 221.749644,13.0091539 221.339448,12.9982673 Z M221.104061,5.55013371 C220.845779,5.54745007 220.589599,5.59631665 220.350821,5.69381512 C220.116507,5.79064832 219.904346,5.93329405 219.727045,6.1132095 C219.534441,6.30962432 219.376618,6.53673408 219.260193,6.78501717 C219.127207,7.07107999 219.03606,7.37443316 218.989497,7.68593844 L223.085238,7.68593844 L223.085238,7.54225703 C223.069757,7.28947334 223.019605,7.03994954 222.936159,6.8005503 C222.854655,6.56725802 222.729557,6.35121775 222.567386,6.16369216 C222.400109,5.97164674 222.192613,5.8179364 221.959302,5.71323152 C221.690652,5.59899079 221.400296,5.54336358 221.107984,5.55013371 L221.104061,5.55013371 Z" id="Shape" fill-rule="nonzero"></path>
            <path d="M233.031476,10.497495 C233.03146,10.3631187 232.999083,10.230497 232.936784,10.109617 C232.856895,9.96356629 232.73395,9.8423497 232.582717,9.76052678 C232.375129,9.64249209 232.152375,9.54994413 231.919873,9.48513339 C231.567131,9.38272588 231.208336,9.29983713 230.845323,9.23689146 C230.346303,9.14039632 229.85515,9.01078046 229.375537,8.84901344 C228.97596,8.71855681 228.596602,8.53855087 228.247466,8.31374178 C227.953201,8.12406479 227.706006,7.87662087 227.522865,7.58840989 C227.347962,7.29646284 227.259786,6.96551004 227.267608,6.63035119 C227.267265,6.28026108 227.357718,5.93539361 227.531099,5.62574713 C227.713984,5.29894228 227.969569,5.01316624 228.280402,4.78793062 C228.63646,4.53196907 229.037927,4.33759948 229.466112,4.21387116 C229.97264,4.06647824 230.50049,3.9945004 231.03059,4.00053825 C231.588107,3.99292153 232.143547,4.06618287 232.67741,4.21774994 C233.123826,4.3416827 233.542418,4.54149518 233.912524,4.80732452 C234.235211,5.04189418 234.498239,5.34138072 234.682412,5.68392884 C234.860497,6.01987964 234.95217,6.39059763 234.95002,6.7661085 L232.924432,6.7661085 C232.924234,6.59556134 232.883434,6.42722789 232.805038,6.27350342 C232.720158,6.11053231 232.597798,5.96742843 232.446855,5.85459516 C232.271599,5.72385891 232.071914,5.62518978 231.858117,5.56368665 C231.591569,5.4862686 231.313573,5.44960159 231.034707,5.45508081 C230.766516,5.45076743 230.499019,5.48210621 230.240117,5.54817153 C230.041856,5.59842631 229.853971,5.67972031 229.684315,5.7886559 C229.546919,5.87788062 229.435165,5.997827 229.359069,6.13774612 C229.289442,6.26630384 229.25278,6.40845114 229.252025,6.55277559 C229.251242,6.68599357 229.279259,6.81796686 229.334366,6.94065361 C229.400457,7.07243533 229.504617,7.18400992 229.634911,7.26259236 C229.823446,7.3768087 230.028737,7.46436588 230.244234,7.52247063 C230.575269,7.61579916 230.912145,7.68963854 231.252911,7.7435611 C231.780213,7.82829025 232.300319,7.94884708 232.809155,8.10428765 C233.225513,8.2283106 233.621735,8.4058197 233.986631,8.63180176 C234.292831,8.82198586 234.549069,9.07533311 234.735934,9.37264877 C234.917196,9.67941966 235.008164,10.0262488 234.999425,10.3772528 C235.00382,10.7469764 234.907425,11.1115759 234.719465,11.4361598 C234.523728,11.7664924 234.250558,12.0503857 233.920758,12.2662188 C233.545166,12.5117447 233.12729,12.6941551 232.685644,12.8053692 C232.15558,12.9400128 231.608365,13.0052716 231.05941,12.9993082 C230.461215,13.0086444 229.865593,12.9234228 229.297313,12.7471875 C228.844935,12.5979743 228.424038,12.3747574 228.053964,12.0877949 C227.724193,11.8340496 227.456041,11.5166046 227.267608,11.1568876 C227.093535,10.8278749 227.00198,10.4655966 227,10.0979807 L228.967949,10.0979807 C228.977187,10.3387604 229.05389,10.5729493 229.19027,10.7767672 C229.3184,10.9624372 229.490288,11.1177403 229.69255,11.2305845 C229.902989,11.3479012 230.132497,11.4317704 230.371862,11.4788264 C230.619348,11.5299187 230.871925,11.5559252 231.125282,11.556402 C231.623173,11.5858161 232.119772,11.4822957 232.558015,11.2577359 C232.846376,11.1000346 233.026019,10.8115798 233.031476,10.497495 Z" id="Path"></path>
        </g>
    </g>
</svg>