<?xml version="1.0" encoding="UTF-8"?>
<svg width="400px" height="97px" viewBox="0 0 400 97" version="1.1" xmlns="http://www.w3.org/2000/svg" xmlns:xlink="http://www.w3.org/1999/xlink">
    <!-- Generator: Sketch 52.5 (67469) - http://www.bohemiancoding.com/sketch -->
    <title>Logo/Symbol</title>
    <desc>Created with Sketch.</desc>
    <g id="Logo/Symbol" stroke="none" stroke-width="1" fill="none" fill-rule="evenodd">
        <g id="HERCO-brand">
            <path d="M111.075838,38.0565693 C105.493783,32.2367218 97.7551998,29.0033807 89.707231,29.1283212 L89.707231,0 L0,0 L0,60.2816058 L12.1128748,60.2816058 C11.8208496,62.0912098 11.6745798,63.9214872 11.675485,65.7546715 C11.5431893,73.8753445 14.7418766,81.6937378 20.5220459,87.3778832 C26.1294459,93.2195093 33.901237,96.4631046 41.9823633,96.3344526 C50.0459667,96.4685214 57.8002074,93.2226476 63.3791887,87.3778832 C65.2103806,85.5360065 66.8204007,83.4852814 68.1763668,81.2675912 C68.1763668,81.2675912 68.1763668,81.2675912 68.1763668,81.2675912 C73.8338086,87.019935 81.5515485,90.2578927 89.6049383,90.2578927 C97.6583281,90.2578927 105.376068,87.019935 111.03351,81.2675912 C116.824537,75.6003827 120.045331,67.7968513 119.943563,59.679781 C120.053694,51.5591348 116.849756,43.746597 111.075838,38.0565693 Z M57.707231,81.5862044 C53.610999,85.8832432 47.9139896,88.2698943 41.989418,88.1708759 C36.0648464,88.2698943 30.367837,85.8832432 26.2716049,81.5862044 C22.0212821,77.4337128 19.6634036,71.7071307 19.7530864,65.7546715 C19.7342212,63.9111805 19.9451466,62.0725579 20.3809524,60.2816058 L59.3650794,60.2816058 C59.3801872,65.0504731 60.5546703,69.7435918 62.7865961,73.9536496 C61.6239298,76.8157296 59.8961236,79.4120335 57.707231,81.5862044 Z M61.0582011,19.8248175 C61.0152579,17.0716839 62.0929617,14.4200594 64.042328,12.4825547 C68.0599741,8.47269097 74.5502552,8.47269097 78.5679012,12.4825547 C80.5248507,14.4171684 81.6124831,17.0681531 81.5802469,19.8248175 C81.6072404,22.5721614 80.5198266,25.21239 78.5679012,27.1387591 C74.5502552,31.1486229 68.0599741,31.1486229 64.042328,27.1387591 C62.0979979,25.2094988 61.0205119,22.5686361 61.0582011,19.8248175 Z M105.361552,75.5042336 C101.208596,79.7175033 95.5488605,82.0883333 89.643739,82.0883333 C83.7386175,82.0883333 78.0788821,79.7175033 73.9259259,75.5042336 C73.0639328,74.6448715 72.2757171,73.7140521 71.5696649,72.7216788 C68.9131438,69.1072192 67.4725774,64.7375871 67.4567901,60.2462044 C67.4402989,60.0459375 67.4402989,59.8446464 67.4567901,59.6443796 C67.3942293,53.6930206 69.7385901,47.9705039 73.9541446,43.7845255 C78.0696693,39.519932 83.7570837,37.1501104 89.6719577,37.2352555 L89.7354497,37.2352555 C95.6311295,37.1533631 101.297671,39.5240639 105.389771,43.7845255 C109.652011,47.9411495 112.01352,53.6805987 111.915344,59.6443796 C112.021906,65.6257508 109.648204,71.3828147 105.361552,75.539635 L105.361552,75.5042336 Z" id="Shape" fill="#003E90"></path>
            <g id="_Grupo_" transform="translate(99.470899, 31.861314)" fill="#E20029">
                <path d="M291.57672,4.7579562 C297.164021,7.92992701 300.091711,11.9656934 300.451499,16.9148175 C300.811287,21.8639416 298.335097,26.3032847 293.241623,30.1408029 C288.148148,33.9783212 281.791887,36.2015328 274.194004,36.6759124 C266.59612,37.150292 260.084656,35.8475182 254.440917,32.7180292 C248.797178,29.5885401 245.982363,25.4890511 245.664903,20.5328467 C245.347443,15.5766423 247.724868,11.1868613 252.832451,7.30686131 C257.940035,3.42686131 264.282187,1.28861314 271.880071,0.771751825 C279.477954,0.254890511 285.989418,1.5859854 291.57672,4.7579562 Z M266.024691,15.8386131 C264.536155,19.4778832 264,22.819781 264.43739,25.9846715 C264.87478,29.149562 266.088183,31.0754015 268.197531,31.9037956 C270.306878,32.7321898 272.564374,32.130365 275.118166,30.1762044 C277.81304,27.9468419 279.892373,25.0603104 281.156966,21.7931387 C282.645503,18.1538686 283.181658,14.8119708 282.758377,11.689562 C282.335097,8.56715328 281.093474,6.55635036 278.998236,5.77043796 C276.902998,4.98452555 274.624339,5.50846715 272.077601,7.4980292 C269.368353,9.69953327 267.28137,12.5752837 266.024691,15.8386131 Z" id="_Trazado_compuesto_" fill-rule="nonzero"></path>
                <g id="_Grupo_2" transform="translate(186.243386, 0.000000)">
                    <path d="M29.0934744,0.757591241 C20.8112875,1.27445255 13.8412698,3.44810219 8.25396825,7.29270073 C2.66666667,11.1372993 0,15.5766423 0.373897707,20.5328467 C0.747795414,25.4890511 3.93650794,29.560219 10.0811287,32.7321898 C16.2257496,35.9041606 23.3932981,37.2069343 31.7107584,36.690073 C39.8706643,36.2180535 46.7254556,34.0939659 52.2751323,30.3178102 C52.5925926,30.119562 52.5925926,29.7655474 52.2751323,29.3690511 L48.7477954,24.4128467 C48.5502646,24.0965937 48.2727807,24.0965937 47.9153439,24.4128467 C47.6047323,24.7237284 47.2748568,25.0146 46.9276896,25.2837226 C40.3161104,29.7397596 31.8357245,30.3095119 24.691358,26.7776642 C21.5238095,24.9580292 19.8165785,22.6215328 19.6190476,19.7681752 C19.4215168,16.9148175 20.8112875,14.380073 23.7389771,12.1639416 C26.918192,9.85481334 30.7095341,8.5461907 34.6313933,8.40430657 C38.9911817,8.12817518 42.7513228,8.87868613 45.9188713,10.6983212 C47.3215551,11.4666679 48.5606506,12.5033981 49.5661376,13.749927 C49.8412698,14.1039416 50.1587302,14.1039416 50.5185185,13.7924088 L55.9858907,9.15481752 C56.120161,9.04693369 56.1947091,8.88094819 56.1863289,8.70853044 C56.1779487,8.53611269 56.0876577,8.37819732 55.9435626,8.28394161 C54.3781954,6.85972398 52.617857,5.66759787 50.7160494,4.74379562 C44.6208113,1.5859854 37.3897707,0.283211679 29.0934744,0.757591241 Z" id="_Trazado_"></path>
                </g>
                <g id="_Grupo_3" transform="translate(117.813051, 0.708029)" fill-rule="nonzero">
                    <path d="M65.1710758,6.46430657 C64.6037296,4.62312272 63.4295479,3.03022379 61.8412698,1.94708029 C60.1410935,0.877956204 57.4814815,0.403576642 53.9541446,0.481459854 L22.2081129,0.481459854 C22.0303005,0.480528013 21.8597265,0.552071541 21.7354497,0.679708029 L21.6578483,0.877956204 C16.5678615,11.053724 10.6699168,20.8017301 4.02116402,30.0275182 C2.83127572,31.6512652 1.64373898,33.2348905 0.458553792,34.7783942 C0.0634920635,35.2527737 0.261022928,35.5289051 0.931216931,35.5713869 L20.5432099,35.5713869 C20.9398052,35.5853461 21.3095632,35.3709324 21.4955908,35.0191241 C22.4056437,33.3127737 23.2804233,31.6489051 24.1904762,30.0629197 C26.3068783,26.1050365 27.7954145,23.5278102 28.5855379,22.3808029 C28.8753084,22.0002007 29.3371486,21.792417 29.8130511,21.8285401 L34.9206349,21.8285401 C38.3703704,21.9064234 39.8589065,23.449927 39.3156966,26.4236496 C38.8783069,28.760146 37.5731922,31.5356204 35.35097,34.7429927 C34.9559083,35.2952555 35.1534392,35.6138686 35.9435626,35.6138686 L57.8483245,35.6138686 C58.281672,35.6781855 58.693188,35.4028452 58.8007055,34.9766423 C60.2680776,28.5618978 59.7107584,24.0871533 57.1358025,21.5878102 C56.6184597,21.0308273 56.6184597,20.6343309 57.1358025,20.3983212 C60.6631393,18.6140876 63.0405644,16.3979562 64.303351,13.7074453 C65.5661376,11.0169343 65.9259259,8.49635036 65.1710758,6.46430657 Z M46.4691358,13.4525547 C44.9664903,15.0385401 42.6666667,15.8315328 39.654321,15.8669343 L33.5943563,15.8244526 C33.1569665,15.8244526 33.0793651,15.5483212 33.3968254,15.0314599 C34.8077601,12.7728467 36.4444444,10.2805839 38.4268078,7.5829927 C38.6243386,7.26437956 39.0617284,7.10861314 39.7319224,7.06613139 L42.5537919,7.06613139 C45.7213404,7.18649635 47.4920635,8.05737226 47.6613757,9.72124088 C47.9203059,11.0874593 47.4714395,12.4922615 46.4691358,13.4525547 Z" id="_Trazado_compuesto_2"></path>
                </g>
                <g id="_Grupo_4" transform="translate(64.902998, 0.708029)">
                    <path d="M64.1975309,0.998321168 C64.2383066,0.955334664 64.2653329,0.90108568 64.2751323,0.842554745 C64.4726631,0.601824818 64.3527337,0.446058394 64.0352734,0.488540146 L22.5749559,0.488540146 C22.3971435,0.487608305 22.2265695,0.559151833 22.1022928,0.686788321 L22.0246914,0.885036496 C16.0682567,12.8572198 8.95601082,24.2141077 0.790123457,34.7925547 C0.712522046,34.870438 0.670194004,34.9129197 0.670194004,34.9908029 C0.55026455,35.1465693 0.55026455,35.3094161 0.670194004,35.3872993 C0.790123457,35.4651825 0.987654321,35.5430657 1.2627866,35.5855474 L41.8694885,35.5855474 C42.2360651,35.5639295 42.5661276,35.3555556 42.7442681,35.0332847 C43.0194004,34.5589051 43.2592593,34.0420438 43.5343915,33.5676642 C44.1693122,32.300292 45.1992945,30.4806569 46.5044092,28.1016788 C46.70194,27.7051825 46.5820106,27.5069343 46.1446208,27.4715328 L26.3915344,28.179562 C25.9188713,28.1016788 25.7566138,27.8255474 25.9964727,27.3865693 C26.4338624,26.5935766 27.7813051,24.299562 29.9964727,20.4974453 C30.2671832,20.0628342 30.7574568,19.8168072 31.2663139,19.860219 L49.968254,20.7735766 C50.3981132,20.846436 50.8308418,20.6610979 51.0758377,20.2991971 C51.35097,19.7823358 52.0634921,18.6353285 53.2557319,16.7590511 C54.3280423,15.0951825 54.8783069,14.1818248 54.9206349,14.1039416 C55.1604938,13.7074453 55.0758377,13.5516788 54.6031746,13.5516788 L34.9135802,13.870292 C34.4761905,13.870292 34.3209877,13.6720438 34.5185185,13.3180292 C35.7883598,11.4134307 36.6984127,10.1460584 37.968254,8.36182482 C38.1657848,8.04321168 38.5608466,7.92284672 39.1534392,7.96532847 L57.968254,8.20605839 C58.4464314,8.29646385 58.9351941,8.11387487 59.2380952,7.73167883 C60.64903,5.74919708 61.8553792,4.08532847 62.8430335,2.70467153 L64.1975309,0.998321168 Z" id="_Trazado_2"></path>
                </g>
                <g id="_Grupo_5" transform="translate(0.000000, 0.708029)">
                    <path d="M75.1604938,0.481459854 L55.7883598,0.481459854 C55.6105474,0.480528013 55.4399734,0.552071541 55.3156966,0.679708029 L55.2380952,0.877956204 C53.0229277,5.27481752 50.8783069,9.23270073 48.8183422,12.7232847 C48.6282672,13.0935871 48.2456901,13.3239669 47.8306878,13.3180292 L35.1887125,13.3180292 C34.6713698,13.3557908 34.5914168,13.119781 34.9488536,12.61 C37.6790123,8.48927007 40.4585538,4.56678832 43.308642,0.849635036 C43.4638448,0.608905109 43.35097,0.453138686 43.0335097,0.495620438 L22.5114638,0.495620438 C22.3336515,0.494688597 22.1630774,0.566232125 22.0388007,0.693868613 L21.9611993,0.892116788 C17.4391578,9.89843811 12.3028985,18.5806426 6.58906526,26.8767883 C4.64902998,29.609781 2.70899471,32.2648905 0.726631393,34.799635 C0.331569665,35.2740146 0.529100529,35.550146 1.19929453,35.5926277 L20.8112875,35.5926277 C21.2078828,35.606587 21.5776408,35.3921732 21.7636684,35.040365 C24.9312169,29.0221168 27.8236332,23.8676642 30.4409171,19.6690511 C30.7028987,19.3311945 31.1272002,19.1630275 31.5485009,19.230073 L44.345679,19.230073 C44.7407407,19.1875912 44.8183422,19.350438 44.6631393,19.6265693 C41.2580835,25.0123114 37.7048795,30.07 34.0035273,34.799635 C33.6084656,35.2740146 33.8059965,35.550146 34.4761905,35.5926277 L54.0881834,35.5926277 C54.4847788,35.606587 54.8545368,35.3921732 55.0405644,35.040365 C55.3156966,34.5659854 55.5555556,34.0491241 55.8306878,33.5747445 C58.9582598,27.6320195 62.2057613,22.0220681 65.5731922,16.7448905 C68.7007643,11.7178832 71.9082892,7.02364964 75.1957672,2.66218978 C75.633157,2.06744526 76.1058201,1.47270073 76.6067019,0.842554745 C76.7619048,0.601824818 76.64903,0.446058394 76.3315697,0.488540146 L75.1604938,0.481459854 Z" id="_Trazado_3"></path>
                </g>
            </g>
        </g>
    </g>
</svg>